<?xml version="1.0" encoding="UTF-8"?>
<svg xmlns="http://www.w3.org/2000/svg" xmlns:xlink="http://www.w3.org/1999/xlink" width="562pt" height="387pt" viewBox="0 0 562 387" version="1.1">
<defs>
<filter id="alpha" filterUnits="objectBoundingBox" x="0%" y="0%" width="100%" height="100%">
  <feColorMatrix type="matrix" in="SourceGraphic" values="0 0 0 0 1 0 0 0 0 1 0 0 0 0 1 0 0 0 1 0"/>
</filter>
<mask id="mask0">
  <g filter="url(#alpha)">
<rect x="0" y="0" width="562" height="387" style="fill:rgb(0%,0%,0%);fill-opacity:0.101961;stroke:none;"/>
  </g>
</mask>
<clipPath id="clip1">
  <rect x="0" y="0" width="562" height="387"/>
</clipPath>
<g id="surface5" clip-path="url(#clip1)">
<path style=" stroke:none;fill-rule:nonzero;fill:rgb(38.823529%,100%,47.058824%);fill-opacity:1;" d="M 175.386719 40.324219 L 211.839844 40.324219 C 213.332031 40.324219 214.542969 41.535156 214.542969 43.03125 L 214.542969 53.328125 C 214.542969 54.820312 213.332031 56.035156 211.839844 56.035156 L 175.386719 56.035156 C 173.894531 56.035156 172.679688 54.820312 172.679688 53.328125 L 172.679688 43.03125 C 172.679688 41.535156 173.894531 40.324219 175.386719 40.324219 Z M 175.386719 40.324219 "/>
</g>
<mask id="mask1">
  <g filter="url(#alpha)">
<rect x="0" y="0" width="562" height="387" style="fill:rgb(0%,0%,0%);fill-opacity:0.101961;stroke:none;"/>
  </g>
</mask>
<clipPath id="clip2">
  <rect x="0" y="0" width="562" height="387"/>
</clipPath>
<g id="surface8" clip-path="url(#clip2)">
<path style=" stroke:none;fill-rule:nonzero;fill:rgb(38.823529%,100%,47.058824%);fill-opacity:1;" d="M 299.925781 26.183594 L 336.378906 26.183594 C 337.871094 26.183594 339.082031 27.394531 339.082031 28.890625 L 339.082031 39.1875 C 339.082031 40.683594 337.871094 41.894531 336.378906 41.894531 L 299.925781 41.894531 C 298.433594 41.894531 297.222656 40.683594 297.222656 39.1875 L 297.222656 28.890625 C 297.222656 27.394531 298.433594 26.183594 299.925781 26.183594 Z M 299.925781 26.183594 "/>
</g>
<mask id="mask2">
  <g filter="url(#alpha)">
<rect x="0" y="0" width="562" height="387" style="fill:rgb(0%,0%,0%);fill-opacity:0.101961;stroke:none;"/>
  </g>
</mask>
<clipPath id="clip3">
  <rect x="0" y="0" width="562" height="387"/>
</clipPath>
<g id="surface11" clip-path="url(#clip3)">
<path style=" stroke:none;fill-rule:nonzero;fill:rgb(38.823529%,100%,47.058824%);fill-opacity:1;" d="M 276.902344 185.90625 L 313.355469 185.90625 C 314.847656 185.90625 316.058594 187.117188 316.058594 188.613281 L 316.058594 198.910156 C 316.058594 200.40625 314.847656 201.617188 313.355469 201.617188 L 276.902344 201.617188 C 275.410156 201.617188 274.199219 200.40625 274.199219 198.910156 L 274.199219 188.613281 C 274.199219 187.117188 275.410156 185.90625 276.902344 185.90625 Z M 276.902344 185.90625 "/>
</g>
<mask id="mask3">
  <g filter="url(#alpha)">
<rect x="0" y="0" width="562" height="387" style="fill:rgb(0%,0%,0%);fill-opacity:0.101961;stroke:none;"/>
  </g>
</mask>
<clipPath id="clip4">
  <rect x="0" y="0" width="562" height="387"/>
</clipPath>
<g id="surface14" clip-path="url(#clip4)">
<path style=" stroke:none;fill-rule:nonzero;fill:rgb(38.823529%,100%,47.058824%);fill-opacity:1;" d="M 295.742188 203.1875 L 332.191406 203.1875 C 333.6875 203.1875 334.898438 204.398438 334.898438 205.894531 L 334.898438 216.191406 C 334.898438 217.6875 333.6875 218.898438 332.191406 218.898438 L 295.742188 218.898438 C 294.246094 218.898438 293.035156 217.6875 293.035156 216.191406 L 293.035156 205.894531 C 293.035156 204.398438 294.246094 203.1875 295.742188 203.1875 Z M 295.742188 203.1875 "/>
</g>
<mask id="mask4">
  <g filter="url(#alpha)">
<rect x="0" y="0" width="562" height="387" style="fill:rgb(0%,0%,0%);fill-opacity:0.101961;stroke:none;"/>
  </g>
</mask>
<clipPath id="clip5">
  <rect x="0" y="0" width="562" height="387"/>
</clipPath>
<g id="surface17" clip-path="url(#clip5)">
<path style=" stroke:none;fill-rule:nonzero;fill:rgb(38.823529%,100%,47.058824%);fill-opacity:1;" d="M 407.722656 195.332031 L 444.171875 195.332031 C 445.667969 195.332031 446.878906 196.546875 446.878906 198.039062 L 446.878906 208.335938 C 446.878906 209.832031 445.667969 211.042969 444.171875 211.042969 L 407.722656 211.042969 C 406.226562 211.042969 405.015625 209.832031 405.015625 208.335938 L 405.015625 198.039062 C 405.015625 196.546875 406.226562 195.332031 407.722656 195.332031 Z M 407.722656 195.332031 "/>
</g>
<mask id="mask5">
  <g filter="url(#alpha)">
<rect x="0" y="0" width="562" height="387" style="fill:rgb(0%,0%,0%);fill-opacity:0.101961;stroke:none;"/>
  </g>
</mask>
<clipPath id="clip6">
  <rect x="0" y="0" width="562" height="387"/>
</clipPath>
<g id="surface20" clip-path="url(#clip6)">
<path style=" stroke:none;fill-rule:nonzero;fill:rgb(38.823529%,100%,47.058824%);fill-opacity:1;" d="M 67.070312 207.902344 L 103.519531 207.902344 C 105.015625 207.902344 106.226562 209.113281 106.226562 210.609375 L 106.226562 220.902344 C 106.226562 222.398438 105.015625 223.613281 103.519531 223.613281 L 67.070312 223.613281 C 65.574219 223.613281 64.363281 222.398438 64.363281 220.902344 L 64.363281 210.609375 C 64.363281 209.113281 65.574219 207.902344 67.070312 207.902344 Z M 67.070312 207.902344 "/>
</g>
<mask id="mask6">
  <g filter="url(#alpha)">
<rect x="0" y="0" width="562" height="387" style="fill:rgb(0%,0%,0%);fill-opacity:0.101961;stroke:none;"/>
  </g>
</mask>
<clipPath id="clip7">
  <rect x="0" y="0" width="562" height="387"/>
</clipPath>
<g id="surface23" clip-path="url(#clip7)">
<path style=" stroke:none;fill-rule:nonzero;fill:rgb(38.823529%,100%,47.058824%);fill-opacity:1;" d="M 263.820312 220.46875 L 300.273438 220.46875 C 301.765625 220.46875 302.976562 221.683594 302.976562 223.175781 L 302.976562 233.472656 C 302.976562 234.96875 301.765625 236.179688 300.273438 236.179688 L 263.820312 236.179688 C 262.328125 236.179688 261.117188 234.96875 261.117188 233.472656 L 261.117188 223.175781 C 261.117188 221.683594 262.328125 220.46875 263.820312 220.46875 Z M 263.820312 220.46875 "/>
</g>
<linearGradient id="linear0" gradientUnits="userSpaceOnUse" x1="607.35" y1="789.64" x2="607.35" y2="80.5" gradientTransform="matrix(0.523277,0,0,0.523681,-32.96648,-42.156292)">
<stop offset="0" style="stop-color:rgb(50.196078%,50.196078%,50.196078%);stop-opacity:0.25098;"/>
<stop offset="0.54" style="stop-color:rgb(50.196078%,50.196078%,50.196078%);stop-opacity:0.121569;"/>
<stop offset="1" style="stop-color:rgb(50.196078%,50.196078%,50.196078%);stop-opacity:0.101961;"/>
</linearGradient>
<mask id="mask7">
  <g filter="url(#alpha)">
<rect x="0" y="0" width="562" height="387" style="fill:rgb(0%,0%,0%);fill-opacity:0.2;stroke:none;"/>
  </g>
</mask>
<clipPath id="clip8">
  <rect x="0" y="0" width="562" height="387"/>
</clipPath>
<g id="surface26" clip-path="url(#clip8)">
<path style=" stroke:none;fill-rule:nonzero;fill:rgb(100%,100%,100%);fill-opacity:1;" d="M 375.191406 96.410156 L 361.539062 102.113281 L 345.675781 46.765625 L 349.398438 42.34375 L 356.214844 41.285156 Z M 375.191406 96.410156 "/>
</g>
<mask id="mask8">
  <g filter="url(#alpha)">
<rect x="0" y="0" width="562" height="387" style="fill:rgb(0%,0%,0%);fill-opacity:0.0705882;stroke:none;"/>
  </g>
</mask>
<clipPath id="clip9">
  <rect x="0" y="0" width="562" height="387"/>
</clipPath>
<g id="surface29" clip-path="url(#clip9)">
<path style=" stroke:none;fill-rule:nonzero;fill:rgb(100%,100%,100%);fill-opacity:1;" d="M 349.398438 42.34375 L 325.703125 45.386719 L 337.847656 103.957031 L 361.539062 102.113281 Z M 349.398438 42.34375 "/>
</g>
<mask id="mask9">
  <g filter="url(#alpha)">
<rect x="0" y="0" width="562" height="387" style="fill:rgb(0%,0%,0%);fill-opacity:0.2;stroke:none;"/>
  </g>
</mask>
<clipPath id="clip10">
  <rect x="0" y="0" width="562" height="387"/>
</clipPath>
<g id="surface32" clip-path="url(#clip10)">
<path style=" stroke:none;fill-rule:nonzero;fill:rgb(0%,0%,0%);fill-opacity:1;" d="M 255.589844 84.019531 L 281.691406 84.019531 L 281.691406 122.253906 L 255.589844 122.253906 Z M 255.589844 84.019531 "/>
</g>
<mask id="mask10">
  <g filter="url(#alpha)">
<rect x="0" y="0" width="562" height="387" style="fill:rgb(0%,0%,0%);fill-opacity:0.2;stroke:none;"/>
  </g>
</mask>
<clipPath id="clip11">
  <rect x="0" y="0" width="562" height="387"/>
</clipPath>
<g id="surface35" clip-path="url(#clip11)">
<path style=" stroke:none;fill-rule:nonzero;fill:rgb(0%,0%,0%);fill-opacity:1;" d="M 350.339844 106.160156 L 335.589844 107.296875 L 337.859375 49.761719 L 342.773438 46.734375 L 349.582031 47.871094 Z M 350.339844 106.160156 "/>
</g>
<mask id="mask11">
  <g filter="url(#alpha)">
<rect x="0" y="0" width="562" height="387" style="fill:rgb(0%,0%,0%);fill-opacity:0.2;stroke:none;"/>
  </g>
</mask>
<clipPath id="clip12">
  <rect x="0" y="0" width="562" height="387"/>
</clipPath>
<g id="surface38" clip-path="url(#clip12)">
<path style=" stroke:none;fill-rule:nonzero;fill:rgb(0%,0%,0%);fill-opacity:1;" d="M 204.714844 18.34375 L 201.308594 18.34375 L 194.503906 77.773438 L 209.628906 77.019531 Z M 204.714844 18.34375 "/>
</g>
<mask id="mask12">
  <g filter="url(#alpha)">
<rect x="0" y="0" width="562" height="387" style="fill:rgb(0%,0%,0%);fill-opacity:0.0509804;stroke:none;"/>
  </g>
</mask>
<clipPath id="clip13">
  <rect x="0" y="0" width="562" height="387"/>
</clipPath>
<g id="surface41" clip-path="url(#clip13)">
<path style=" stroke:none;fill-rule:nonzero;fill:rgb(0%,0%,0%);fill-opacity:1;" d="M 247.457031 327.988281 C 247.457031 327.988281 242.921875 327.609375 242.164062 340.859375 C 242.164062 340.859375 242.921875 348.046875 241.027344 351.457031 C 239.132812 354.867188 240.269531 364.707031 245.945312 365.84375 C 249.578125 366.511719 253.300781 366.511719 256.933594 365.84375 C 256.933594 365.84375 259.582031 365.84375 257.691406 356.378906 L 253.910156 328.746094 Z M 247.457031 327.988281 "/>
</g>
<mask id="mask13">
  <g filter="url(#alpha)">
<rect x="0" y="0" width="562" height="387" style="fill:rgb(0%,0%,0%);fill-opacity:0.101961;stroke:none;"/>
  </g>
</mask>
<clipPath id="clip14">
  <rect x="0" y="0" width="562" height="387"/>
</clipPath>
<g id="surface44" clip-path="url(#clip14)">
<path style=" stroke:none;fill-rule:nonzero;fill:rgb(0%,0%,0%);fill-opacity:1;" d="M 274.3125 95.945312 C 273.347656 98.40625 272.585938 100.949219 272.035156 103.535156 C 266.292969 104.757812 260.339844 102.792969 256.449219 98.394531 C 256.359375 95.800781 256.136719 93.214844 255.777344 90.644531 C 255.777344 90.644531 279.609375 82.316406 274.3125 95.945312 Z M 274.3125 95.945312 "/>
</g>
<mask id="mask14">
  <g filter="url(#alpha)">
<rect x="0" y="0" width="562" height="387" style="fill:rgb(0%,0%,0%);fill-opacity:0.101961;stroke:none;"/>
  </g>
</mask>
<clipPath id="clip15">
  <rect x="0" y="0" width="562" height="387"/>
</clipPath>
<g id="surface47" clip-path="url(#clip15)">
<path style=" stroke:none;fill-rule:nonzero;fill:rgb(0%,0%,0%);fill-opacity:1;" d="M 245.941406 322.6875 L 256.929688 323.824219 C 256.546875 324.78125 256.332031 325.800781 256.296875 326.835938 C 253.253906 328.429688 249.644531 328.539062 246.511719 327.132812 C 246.234375 324.554688 245.941406 322.6875 245.941406 322.6875 Z M 245.941406 322.6875 "/>
</g>
<mask id="mask15">
  <g filter="url(#alpha)">
<rect x="0" y="0" width="562" height="387" style="fill:rgb(0%,0%,0%);fill-opacity:0.101961;stroke:none;"/>
  </g>
</mask>
<clipPath id="clip16">
  <rect x="0" y="0" width="562" height="387"/>
</clipPath>
<g id="surface50" clip-path="url(#clip16)">
<path style=" stroke:none;fill-rule:nonzero;fill:rgb(0%,0%,0%);fill-opacity:1;" d="M 279.230469 321.171875 C 278.507812 322.214844 277.972656 323.382812 277.660156 324.613281 C 274.085938 325.191406 270.335938 324.179688 268.183594 323.421875 C 268.460938 320.753906 268.636719 318.90625 268.636719 318.90625 Z M 279.230469 321.171875 "/>
</g>
<mask id="mask16">
  <g filter="url(#alpha)">
<rect x="0" y="0" width="562" height="387" style="fill:rgb(0%,0%,0%);fill-opacity:0.101961;stroke:none;"/>
  </g>
</mask>
<clipPath id="clip17">
  <rect x="0" y="0" width="562" height="387"/>
</clipPath>
<g id="surface53" clip-path="url(#clip17)">
<path style=" stroke:none;fill-rule:nonzero;fill:rgb(0%,0%,0%);fill-opacity:1;" d="M 246.699219 186.414062 C 246.699219 186.414062 244.921875 204.21875 232.378906 199.066406 C 232.449219 198.207031 232.53125 197.382812 232.617188 196.589844 C 235.570312 197.390625 243.738281 198.496094 244.046875 186.410156 Z M 246.699219 186.414062 "/>
</g>
<mask id="mask17">
  <g filter="url(#alpha)">
<rect x="0" y="0" width="562" height="387" style="fill:rgb(0%,0%,0%);fill-opacity:0.101961;stroke:none;"/>
  </g>
</mask>
<clipPath id="clip18">
  <rect x="0" y="0" width="562" height="387"/>
</clipPath>
<g id="surface56" clip-path="url(#clip18)">
<path style=" stroke:none;fill-rule:nonzero;fill:rgb(0%,0%,0%);fill-opacity:1;" d="M 289.472656 194.402344 C 280.785156 197.507812 277.507812 189.238281 276.390625 184.519531 L 278.785156 184.628906 C 280.089844 192.050781 285.289062 192.484375 288.457031 191.960938 C 288.8125 192.789062 289.152344 193.597656 289.472656 194.402344 Z M 289.472656 194.402344 "/>
</g>
<mask id="mask18">
  <g filter="url(#alpha)">
<rect x="0" y="0" width="562" height="387" style="fill:rgb(0%,0%,0%);fill-opacity:0.0509804;stroke:none;"/>
  </g>
</mask>
<clipPath id="clip19">
  <rect x="0" y="0" width="562" height="387"/>
</clipPath>
<g id="surface59" clip-path="url(#clip19)">
<path style=" stroke:none;fill-rule:nonzero;fill:rgb(0%,0%,0%);fill-opacity:1;" d="M 260.316406 362.050781 C 260.316406 362.050781 256.53125 368.488281 265.234375 369.242188 C 273.9375 369.996094 277.714844 365.457031 277.714844 365.457031 C 277.714844 365.457031 278.847656 363.566406 277.714844 360.15625 C 276.578125 356.746094 278.089844 350.691406 278.089844 350.691406 C 278.089844 350.691406 279.226562 343.503906 276.578125 345.015625 C 273.929688 346.53125 260.316406 362.050781 260.316406 362.050781 Z M 260.316406 362.050781 "/>
</g>
<mask id="mask19">
  <g filter="url(#alpha)">
<rect x="0" y="0" width="562" height="387" style="fill:rgb(0%,0%,0%);fill-opacity:0.2;stroke:none;"/>
  </g>
</mask>
<clipPath id="clip20">
  <rect x="0" y="0" width="562" height="387"/>
</clipPath>
<g id="surface62" clip-path="url(#clip20)">
<path style=" stroke:none;fill-rule:nonzero;fill:rgb(0%,0%,0%);fill-opacity:1;" d="M 214.171875 22.886719 C 214.171875 23.304688 213.832031 23.644531 213.414062 23.644531 C 212.996094 23.644531 212.65625 23.304688 212.65625 22.886719 C 212.65625 22.464844 212.996094 22.125 213.414062 22.125 C 213.832031 22.125 214.171875 22.464844 214.171875 22.886719 Z M 214.171875 22.886719 "/>
</g>
<mask id="mask20">
  <g filter="url(#alpha)">
<rect x="0" y="0" width="562" height="387" style="fill:rgb(0%,0%,0%);fill-opacity:0.2;stroke:none;"/>
  </g>
</mask>
<clipPath id="clip21">
  <rect x="0" y="0" width="562" height="387"/>
</clipPath>
<g id="surface65" clip-path="url(#clip21)">
<path style=" stroke:none;fill-rule:nonzero;fill:rgb(0%,0%,0%);fill-opacity:1;" d="M 230.058594 24.773438 C 230.058594 25.195312 229.71875 25.535156 229.300781 25.535156 C 228.882812 25.535156 228.542969 25.195312 228.542969 24.773438 C 228.542969 24.355469 228.882812 24.015625 229.300781 24.015625 C 229.71875 24.015625 230.058594 24.355469 230.058594 24.773438 Z M 230.058594 24.773438 "/>
</g>
<mask id="mask21">
  <g filter="url(#alpha)">
<rect x="0" y="0" width="562" height="387" style="fill:rgb(0%,0%,0%);fill-opacity:0.101961;stroke:none;"/>
  </g>
</mask>
<clipPath id="clip22">
  <rect x="0" y="0" width="562" height="387"/>
</clipPath>
<g id="surface68" clip-path="url(#clip22)">
<path style=" stroke:none;fill-rule:nonzero;fill:rgb(0%,0%,0%);fill-opacity:1;" d="M 272.042969 118.277344 L 262.210938 120.929688 C 262.210938 120.929688 245.945312 123.199219 252.375 116.738281 C 254.601562 114.511719 255.695312 110.695312 256.171875 106.664062 C 258.738281 110.695312 261.832031 109.546875 261.832031 109.546875 L 271.210938 109.367188 L 271.246094 109.367188 C 270.917969 115.03125 272.042969 118.277344 272.042969 118.277344 Z M 272.042969 118.277344 "/>
</g>
<mask id="mask22">
  <g filter="url(#alpha)">
<rect x="0" y="0" width="562" height="387" style="fill:rgb(0%,0%,0%);fill-opacity:0.101961;stroke:none;"/>
  </g>
</mask>
<clipPath id="clip23">
  <rect x="0" y="0" width="562" height="387"/>
</clipPath>
<g id="surface71" clip-path="url(#clip23)">
<path style=" stroke:none;fill-rule:nonzero;fill:rgb(0%,0%,0%);fill-opacity:1;" d="M 290.707031 125.8125 C 290.082031 126.28125 289.402344 126.671875 288.6875 126.980469 L 286.414062 108.808594 L 288.507812 103.53125 L 289.03125 103.128906 C 293.757812 104.472656 291.320312 121.882812 290.707031 125.8125 Z M 290.707031 125.8125 "/>
</g>
<mask id="mask23">
  <g filter="url(#alpha)">
<rect x="0" y="0" width="562" height="387" style="fill:rgb(0%,0%,0%);fill-opacity:0.101961;stroke:none;"/>
  </g>
</mask>
<clipPath id="clip24">
  <rect x="0" y="0" width="562" height="387"/>
</clipPath>
<g id="surface74" clip-path="url(#clip24)">
<path style=" stroke:none;fill-rule:nonzero;fill:rgb(0%,0%,0%);fill-opacity:1;" d="M 239.890625 94.808594 L 239.890625 99.730469 L 231.570312 121.304688 L 229.300781 119.03125 C 229.175781 118.898438 229.058594 118.753906 228.953125 118.601562 C 229.9375 107.355469 239.890625 94.808594 239.890625 94.808594 Z M 239.890625 94.808594 "/>
</g>
<mask id="mask24">
  <g filter="url(#alpha)">
<rect x="0" y="0" width="562" height="387" style="fill:rgb(0%,0%,0%);fill-opacity:0.101961;stroke:none;"/>
  </g>
</mask>
<clipPath id="clip25">
  <rect x="0" y="0" width="562" height="387"/>
</clipPath>
<g id="surface77" clip-path="url(#clip25)">
<path style=" stroke:none;fill-rule:nonzero;fill:rgb(0%,0%,0%);fill-opacity:1;" d="M 286.289062 187.769531 C 281 189.097656 253.382812 195.589844 245.1875 189.441406 C 241.953125 187.015625 238.144531 186.125 234.578125 185.984375 C 234.878906 184.839844 235.265625 183.71875 235.730469 182.628906 L 276.375 184.519531 L 278.769531 184.628906 L 284.527344 184.894531 C 285.15625 185.847656 285.742188 186.808594 286.289062 187.769531 Z M 286.289062 187.769531 "/>
</g>
<mask id="mask25">
  <g filter="url(#alpha)">
<rect x="0" y="0" width="562" height="387" style="fill:rgb(0%,0%,0%);fill-opacity:0.101961;stroke:none;"/>
  </g>
</mask>
<clipPath id="clip26">
  <rect x="0" y="0" width="562" height="387"/>
</clipPath>
<g id="surface80" clip-path="url(#clip26)">
<path style=" stroke:none;fill-rule:nonzero;fill:rgb(0%,0%,0%);fill-opacity:1;" d="M 261.582031 235.207031 C 261.398438 232.902344 261.261719 231.460938 261.261719 231.460938 C 257.074219 232.597656 257.480469 287.863281 257.480469 287.863281 L 257.480469 323.824219 C 254.820312 326.148438 252.246094 327.113281 249.96875 327.316406 C 252.699219 327.558594 255.957031 326.792969 259.386719 323.824219 L 259.386719 287.863281 C 259.386719 287.863281 259.09375 247.816406 261.582031 235.207031 Z M 261.582031 235.207031 "/>
<path style=" stroke:none;fill-rule:nonzero;fill:rgb(0%,0%,0%);fill-opacity:1;" d="M 289.285156 194.402344 C 288.964844 193.59375 288.625 192.78125 288.238281 191.976562 C 287.597656 190.574219 286.882812 189.164062 286.085938 187.785156 C 285.5625 186.824219 284.945312 185.863281 284.316406 184.910156 L 278.5625 184.644531 L 276.164062 184.535156 L 235.523438 182.644531 L 235.484375 182.726562 L 274.277344 184.535156 L 276.671875 184.644531 L 282.429688 184.910156 C 283.054688 185.859375 283.648438 186.824219 284.195312 187.785156 C 284.992188 189.183594 285.710938 190.59375 286.347656 191.976562 C 286.714844 192.78125 287.058594 193.59375 287.394531 194.402344 C 295.128906 213.933594 289.257812 232.96875 289.257812 232.96875 L 287.027344 248.605469 C 286.125 254.542969 284.75 260.398438 282.914062 266.113281 C 281.3125 271.273438 282.449219 277.632812 282.449219 277.632812 C 282.449219 277.632812 283.960938 301.859375 281.3125 307.917969 C 278.667969 313.976562 279.042969 322.679688 279.042969 322.679688 C 277.582031 323.472656 275.960938 323.917969 274.300781 323.992188 C 276.589844 324.195312 278.890625 323.742188 280.933594 322.679688 C 280.933594 322.679688 280.554688 313.972656 283.203125 307.917969 C 285.851562 301.867188 284.339844 277.632812 284.339844 277.632812 C 284.339844 277.632812 283.203125 271.265625 284.804688 266.113281 C 286.636719 260.398438 288.011719 254.542969 288.917969 248.605469 L 291.144531 232.96875 C 291.144531 232.96875 297.015625 213.921875 289.285156 194.402344 Z M 289.285156 194.402344 "/>
</g>
<mask id="mask26">
  <g filter="url(#alpha)">
<rect x="0" y="0" width="562" height="387" style="fill:rgb(0%,0%,0%);fill-opacity:0.101961;stroke:none;"/>
  </g>
</mask>
<clipPath id="clip27">
  <rect x="0" y="0" width="562" height="387"/>
</clipPath>
<g id="surface83" clip-path="url(#clip27)">
<path style=" stroke:none;fill-rule:nonzero;fill:rgb(0%,0%,0%);fill-opacity:1;" d="M 264.40625 63.921875 C 263.109375 63.636719 261.765625 63.636719 260.464844 63.921875 C 256.355469 65.058594 255.0625 70.246094 251.886719 73.09375 C 250.742188 74.144531 249.335938 74.84375 248.300781 75.980469 C 246.457031 78.003906 246.085938 80.996094 246.480469 83.707031 C 246.871094 86.414062 247.917969 88.980469 248.574219 91.632812 C 249.21875 94.292969 249.464844 97.03125 249.300781 99.761719 C 249.3125 100.667969 249.070312 101.558594 248.597656 102.332031 C 247.839844 103.378906 246.441406 103.710938 245.460938 104.546875 C 242.457031 107.132812 244.9375 112.503906 242.734375 115.808594 C 241.785156 117.238281 240.011719 118.179688 239.652344 119.855469 C 239.394531 121.042969 239.9375 122.242188 240.472656 123.335938 C 241.875 126.21875 243.328125 129.175781 245.703125 131.324219 C 248.082031 133.46875 251.015625 134.550781 253.9375 135.644531 C 254.820312 135.972656 255.929688 136.261719 256.605469 135.605469 C 257.4375 134.789062 256.808594 133.40625 256.234375 132.398438 C 255.324219 130.824219 254.609375 128.929688 255.144531 127.160156 C 255.679688 125.390625 257.390625 124.21875 258.539062 122.742188 C 261.507812 118.917969 260.535156 113.429688 259.0625 108.820312 C 258.441406 106.878906 257.742188 104.808594 258.269531 102.835938 C 258.492188 101.988281 258.9375 101.21875 259.222656 100.382812 C 260.476562 96.675781 258.367188 92.609375 258.984375 88.742188 C 259.308594 87.234375 259.835938 85.777344 260.554688 84.410156 L 263.878906 77.265625 C 264.210938 76.402344 264.710938 75.617188 265.347656 74.949219 C 266.382812 74.117188 267.691406 73.710938 269.011719 73.808594 C 271.734375 73.867188 274.3125 75.042969 276.144531 77.058594 C 279.703125 81.019531 279.476562 87.007812 279.046875 92.289062 L 278.738281 96.101562 C 278.515625 98.84375 278.214844 101.773438 276.488281 103.910156 C 275.144531 105.5625 272.972656 106.691406 272.417969 108.753906 C 271.9375 110.527344 272.84375 112.457031 272.367188 114.230469 C 271.652344 116.886719 268.378906 117.84375 266.648438 119.992188 C 265.15625 121.902344 264.984375 124.527344 266.21875 126.617188 C 266.875 127.664062 267.929688 128.710938 267.789062 129.941406 C 267.667969 130.929688 266.777344 131.730469 266.78125 132.726562 C 266.871094 133.636719 267.507812 134.402344 268.390625 134.648438 C 269.253906 134.875 270.160156 134.917969 271.042969 134.773438 L 280.425781 133.925781 C 281.011719 133.921875 281.589844 133.765625 282.09375 133.464844 C 282.746094 132.992188 282.960938 132.125 283.050781 131.324219 C 283.429688 127.980469 282.527344 124.332031 284.195312 121.410156 C 284.71875 120.472656 285.488281 119.691406 286.070312 118.792969 C 289.273438 113.765625 286.042969 106.945312 287.785156 101.242188 C 288.613281 98.535156 290.539062 96.210938 291.050781 93.429688 C 291.730469 89.722656 289.800781 86.097656 289.054688 82.433594 C 288.285156 78.644531 288.699219 74.476562 286.675781 71.183594 C 285.132812 68.671875 282.371094 67.105469 279.515625 66.386719 C 276.898438 65.726562 274.28125 65.960938 271.664062 65.679688 C 269.164062 65.390625 266.839844 64.3125 264.40625 63.921875 Z M 264.40625 63.921875 "/>
</g>
<mask id="mask27">
  <g filter="url(#alpha)">
<rect x="0" y="0" width="562" height="387" style="fill:rgb(0%,0%,0%);fill-opacity:0.101961;stroke:none;"/>
  </g>
</mask>
<clipPath id="clip28">
  <rect x="0" y="0" width="562" height="387"/>
</clipPath>
<g id="surface86" clip-path="url(#clip28)">
<path style=" stroke:none;fill-rule:nonzero;fill:rgb(0%,0%,0%);fill-opacity:1;" d="M 244.238281 149.882812 C 244.238281 149.882812 251.804688 152.15625 262.773438 147.234375 L 268.441406 147.234375 C 268.441406 147.234375 268.816406 152.53125 283.570312 150.257812 "/>
</g>
<mask id="mask28">
  <g filter="url(#alpha)">
<rect x="0" y="0" width="562" height="387" style="fill:rgb(0%,0%,0%);fill-opacity:0.101961;stroke:none;"/>
  </g>
</mask>
<clipPath id="clip29">
  <rect x="0" y="0" width="562" height="387"/>
</clipPath>
<g id="surface89" clip-path="url(#clip29)">
<path style=" stroke:none;fill-rule:nonzero;fill:rgb(38.823529%,100%,47.058824%);fill-opacity:1;" d="M 562 361.339844 C 562 347.167969 436.191406 335.679688 281 335.679688 C 125.808594 335.679688 0 347.167969 0 361.339844 C 0 375.511719 125.808594 387 281 387 C 436.191406 387 562 375.511719 562 361.339844 Z M 562 361.339844 "/>
</g>
<mask id="mask29">
  <g filter="url(#alpha)">
<rect x="0" y="0" width="562" height="387" style="fill:rgb(0%,0%,0%);fill-opacity:0.101961;stroke:none;"/>
  </g>
</mask>
<clipPath id="clip30">
  <rect x="0" y="0" width="562" height="387"/>
</clipPath>
<g id="surface92" clip-path="url(#clip30)">
<path style=" stroke:none;fill-rule:nonzero;fill:rgb(38.823529%,100%,47.058824%);fill-opacity:1;" d="M 134.570312 135.109375 L 171.023438 135.109375 C 172.515625 135.109375 173.726562 136.320312 173.726562 137.816406 L 173.726562 148.113281 C 173.726562 149.609375 172.515625 150.820312 171.023438 150.820312 L 134.570312 150.820312 C 133.078125 150.820312 131.867188 149.609375 131.867188 148.113281 L 131.867188 137.816406 C 131.867188 136.320312 133.078125 135.109375 134.570312 135.109375 Z M 134.570312 135.109375 "/>
</g>
<mask id="mask30">
  <g filter="url(#alpha)">
<rect x="0" y="0" width="562" height="387" style="fill:rgb(0%,0%,0%);fill-opacity:0.101961;stroke:none;"/>
  </g>
</mask>
<clipPath id="clip31">
  <rect x="0" y="0" width="562" height="387"/>
</clipPath>
<g id="surface95" clip-path="url(#clip31)">
<path style=" stroke:none;fill-rule:nonzero;fill:rgb(38.823529%,100%,47.058824%);fill-opacity:1;" d="M 153.410156 152.390625 L 189.859375 152.390625 C 191.355469 152.390625 192.566406 153.601562 192.566406 155.097656 L 192.566406 165.394531 C 192.566406 166.890625 191.355469 168.101562 189.859375 168.101562 L 153.410156 168.101562 C 151.914062 168.101562 150.703125 166.890625 150.703125 165.394531 L 150.703125 155.097656 C 150.703125 153.601562 151.914062 152.390625 153.410156 152.390625 Z M 153.410156 152.390625 "/>
</g>
<mask id="mask31">
  <g filter="url(#alpha)">
<rect x="0" y="0" width="562" height="387" style="fill:rgb(0%,0%,0%);fill-opacity:0.101961;stroke:none;"/>
  </g>
</mask>
<clipPath id="clip32">
  <rect x="0" y="0" width="562" height="387"/>
</clipPath>
<g id="surface98" clip-path="url(#clip32)">
<path style=" stroke:none;fill-rule:nonzero;fill:rgb(38.823529%,100%,47.058824%);fill-opacity:1;" d="M 318.242188 136.15625 L 354.691406 136.15625 C 356.1875 136.15625 357.398438 137.367188 357.398438 138.863281 L 357.398438 149.160156 C 357.398438 150.65625 356.1875 151.867188 354.691406 151.867188 L 318.242188 151.867188 C 316.746094 151.867188 315.535156 150.65625 315.535156 149.160156 L 315.535156 138.863281 C 315.535156 137.367188 316.746094 136.15625 318.242188 136.15625 Z M 318.242188 136.15625 "/>
</g>
<mask id="mask32">
  <g filter="url(#alpha)">
<rect x="0" y="0" width="562" height="387" style="fill:rgb(0%,0%,0%);fill-opacity:0.101961;stroke:none;"/>
  </g>
</mask>
<clipPath id="clip33">
  <rect x="0" y="0" width="562" height="387"/>
</clipPath>
<g id="surface101" clip-path="url(#clip33)">
<path style=" stroke:none;fill-rule:nonzero;fill:rgb(38.823529%,100%,47.058824%);fill-opacity:1;" d="M 337.078125 153.4375 L 373.53125 153.4375 C 375.023438 153.4375 376.238281 154.652344 376.238281 156.144531 L 376.238281 166.441406 C 376.238281 167.9375 375.023438 169.148438 373.53125 169.148438 L 337.078125 169.148438 C 335.585938 169.148438 334.375 167.9375 334.375 166.441406 L 334.375 156.144531 C 334.375 154.652344 335.585938 153.4375 337.078125 153.4375 Z M 337.078125 153.4375 "/>
</g>
<mask id="mask33">
  <g filter="url(#alpha)">
<rect x="0" y="0" width="562" height="387" style="fill:rgb(0%,0%,0%);fill-opacity:0.101961;stroke:none;"/>
  </g>
</mask>
<clipPath id="clip34">
  <rect x="0" y="0" width="562" height="387"/>
</clipPath>
<g id="surface104" clip-path="url(#clip34)">
<path style=" stroke:none;fill-rule:nonzero;fill:rgb(38.823529%,100%,47.058824%);fill-opacity:1;" d="M 121.488281 169.671875 L 157.941406 169.671875 C 159.433594 169.671875 160.644531 170.882812 160.644531 172.378906 L 160.644531 182.675781 C 160.644531 184.171875 159.433594 185.382812 157.941406 185.382812 L 121.488281 185.382812 C 119.996094 185.382812 118.785156 184.171875 118.785156 182.675781 L 118.785156 172.378906 C 118.785156 170.882812 119.996094 169.671875 121.488281 169.671875 Z M 121.488281 169.671875 "/>
</g>
<mask id="mask34">
  <g filter="url(#alpha)">
<rect x="0" y="0" width="562" height="387" style="fill:rgb(0%,0%,0%);fill-opacity:0.101961;stroke:none;"/>
  </g>
</mask>
<clipPath id="clip35">
  <rect x="0" y="0" width="562" height="387"/>
</clipPath>
<g id="surface107" clip-path="url(#clip35)">
<path style=" stroke:none;fill-rule:nonzero;fill:rgb(38.823529%,100%,47.058824%);fill-opacity:1;" d="M 163.351562 230.941406 L 199.804688 230.941406 C 201.296875 230.941406 202.507812 232.15625 202.507812 233.652344 L 202.507812 243.945312 C 202.507812 245.441406 201.296875 246.652344 199.804688 246.652344 L 163.351562 246.652344 C 161.855469 246.652344 160.644531 245.441406 160.644531 243.945312 L 160.644531 233.652344 C 160.644531 232.15625 161.855469 230.941406 163.351562 230.941406 Z M 163.351562 230.941406 "/>
</g>
<mask id="mask35">
  <g filter="url(#alpha)">
<rect x="0" y="0" width="562" height="387" style="fill:rgb(0%,0%,0%);fill-opacity:0.101961;stroke:none;"/>
  </g>
</mask>
<clipPath id="clip36">
  <rect x="0" y="0" width="562" height="387"/>
</clipPath>
<g id="surface110" clip-path="url(#clip36)">
<path style=" stroke:none;fill-rule:nonzero;fill:rgb(38.823529%,100%,47.058824%);fill-opacity:1;" d="M 182.191406 248.226562 L 218.640625 248.226562 C 220.136719 248.226562 221.347656 249.4375 221.347656 250.933594 L 221.347656 261.226562 C 221.347656 262.722656 220.136719 263.933594 218.640625 263.933594 L 182.191406 263.933594 C 180.695312 263.933594 179.484375 262.722656 179.484375 261.226562 L 179.484375 250.933594 C 179.484375 249.4375 180.695312 248.226562 182.191406 248.226562 Z M 182.191406 248.226562 "/>
</g>
<mask id="mask36">
  <g filter="url(#alpha)">
<rect x="0" y="0" width="562" height="387" style="fill:rgb(0%,0%,0%);fill-opacity:0.101961;stroke:none;"/>
  </g>
</mask>
<clipPath id="clip37">
  <rect x="0" y="0" width="562" height="387"/>
</clipPath>
<g id="surface113" clip-path="url(#clip37)">
<path style=" stroke:none;fill-rule:nonzero;fill:rgb(38.823529%,100%,47.058824%);fill-opacity:1;" d="M 150.269531 265.507812 L 186.722656 265.507812 C 188.214844 265.507812 189.425781 266.71875 189.425781 268.214844 L 189.425781 278.507812 C 189.425781 280.003906 188.214844 281.214844 186.722656 281.214844 L 150.269531 281.214844 C 148.777344 281.214844 147.5625 280.003906 147.5625 278.507812 L 147.5625 268.214844 C 147.5625 266.71875 148.777344 265.507812 150.269531 265.507812 Z M 150.269531 265.507812 "/>
</g>
<mask id="mask37">
  <g filter="url(#alpha)">
<rect x="0" y="0" width="562" height="387" style="fill:rgb(0%,0%,0%);fill-opacity:0.101961;stroke:none;"/>
  </g>
</mask>
<clipPath id="clip38">
  <rect x="0" y="0" width="562" height="387"/>
</clipPath>
<g id="surface116" clip-path="url(#clip38)">
<path style=" stroke:none;fill-rule:nonzero;fill:rgb(38.823529%,100%,47.058824%);fill-opacity:1;" d="M 331.847656 274.933594 L 368.296875 274.933594 C 369.792969 274.933594 371.003906 276.144531 371.003906 277.640625 L 371.003906 287.933594 C 371.003906 289.429688 369.792969 290.644531 368.296875 290.644531 L 331.847656 290.644531 C 330.351562 290.644531 329.140625 289.429688 329.140625 287.933594 L 329.140625 277.640625 C 329.140625 276.144531 330.351562 274.933594 331.847656 274.933594 Z M 331.847656 274.933594 "/>
</g>
<mask id="mask38">
  <g filter="url(#alpha)">
<rect x="0" y="0" width="562" height="387" style="fill:rgb(0%,0%,0%);fill-opacity:0.101961;stroke:none;"/>
  </g>
</mask>
<clipPath id="clip39">
  <rect x="0" y="0" width="562" height="387"/>
</clipPath>
<g id="surface119" clip-path="url(#clip39)">
<path style=" stroke:none;fill-rule:nonzero;fill:rgb(38.823529%,100%,47.058824%);fill-opacity:1;" d="M 299.925781 292.214844 L 336.378906 292.214844 C 337.871094 292.214844 339.082031 293.425781 339.082031 294.921875 L 339.082031 305.214844 C 339.082031 306.710938 337.871094 307.925781 336.378906 307.925781 L 299.925781 307.925781 C 298.433594 307.925781 297.222656 306.710938 297.222656 305.214844 L 297.222656 294.921875 C 297.222656 293.425781 298.433594 292.214844 299.925781 292.214844 Z M 299.925781 292.214844 "/>
</g>
<mask id="mask39">
  <g filter="url(#alpha)">
<rect x="0" y="0" width="562" height="387" style="fill:rgb(0%,0%,0%);fill-opacity:0.101961;stroke:none;"/>
  </g>
</mask>
<clipPath id="clip40">
  <rect x="0" y="0" width="562" height="387"/>
</clipPath>
<g id="surface122" clip-path="url(#clip40)">
<path style="fill:none;stroke-width:2;stroke-linecap:butt;stroke-linejoin:miter;stroke:rgb(32.54902%,32.941176%,38.039216%);stroke-opacity:1;stroke-miterlimit:10;" d="M 1008.259147 743.89333 C 1008.259147 743.89333 993.777107 670.531886 1023.599658 620.249273 C 1036.23785 599.244105 1041.724602 574.703266 1039.231303 550.311612 C 1037.947328 538.742359 1035.603328 527.314832 1032.229162 516.170755 " transform="matrix(0.523277,0,0,0.523681,-32.96648,-42.156292)"/>
<path style=" stroke:none;fill-rule:nonzero;fill:rgb(38.823529%,100%,47.058824%);fill-opacity:1;" d="M 516.917969 211.5 C 516.5 216.082031 506.976562 228.613281 506.976562 228.613281 C 506.976562 228.613281 499.902344 214.558594 500.328125 209.96875 C 500.832031 205.460938 504.851562 202.183594 509.367188 202.601562 C 513.882812 203.015625 517.234375 206.96875 516.914062 211.492188 Z M 516.917969 211.5 "/>
<path style=" stroke:none;fill-rule:nonzero;fill:rgb(38.823529%,100%,47.058824%);fill-opacity:1;" d="M 528.300781 238.152344 C 525.460938 241.773438 510.667969 247.121094 510.667969 247.121094 C 510.667969 247.121094 512.363281 231.472656 515.203125 227.851562 C 516.992188 225.367188 520 224.0625 523.035156 224.453125 C 526.070312 224.847656 528.648438 226.875 529.742188 229.738281 C 530.839844 232.597656 530.28125 235.828125 528.285156 238.152344 Z M 528.300781 238.152344 "/>
<path style=" stroke:none;fill-rule:nonzero;fill:rgb(38.823529%,100%,47.058824%);fill-opacity:1;" d="M 523.71875 281.476562 C 519.4375 283.164062 503.972656 280.304688 503.972656 280.304688 C 503.972656 280.304688 513.328125 267.652344 517.609375 265.96875 C 521.867188 264.363281 526.625 266.480469 528.292969 270.714844 C 529.960938 274.949219 527.921875 279.742188 523.71875 281.476562 Z M 523.71875 281.476562 "/>
<path style=" stroke:none;fill-rule:nonzero;fill:rgb(38.823529%,100%,47.058824%);fill-opacity:1;" d="M 512.871094 313.5 C 508.933594 315.890625 493.210938 315.683594 493.210938 315.683594 C 493.210938 315.683594 500.296875 301.636719 504.230469 299.246094 C 506.777344 297.644531 509.988281 297.539062 512.636719 298.972656 C 515.28125 300.40625 516.949219 303.15625 516.996094 306.167969 C 517.046875 309.179688 515.46875 311.984375 512.871094 313.5 Z M 512.871094 313.5 "/>
<path style=" stroke:none;fill-rule:nonzero;fill:rgb(38.823529%,100%,47.058824%);fill-opacity:1;" d="M 493.167969 246.390625 C 496.160156 249.890625 511.164062 254.601562 511.164062 254.601562 C 511.164062 254.601562 508.808594 239.039062 505.820312 235.546875 C 503.898438 233.234375 500.882812 232.136719 497.925781 232.675781 C 494.96875 233.214844 492.53125 235.304688 491.546875 238.144531 C 490.5625 240.984375 491.179688 244.136719 493.167969 246.390625 Z M 493.167969 246.390625 "/>
<path style=" stroke:none;fill-rule:nonzero;fill:rgb(38.823529%,100%,47.058824%);fill-opacity:1;" d="M 480.953125 284.003906 C 484.851562 286.441406 500.582031 286.449219 500.582031 286.449219 C 500.582031 286.449219 493.6875 272.308594 489.78125 269.863281 C 487.257812 268.234375 484.050781 268.09375 481.394531 269.492188 C 478.738281 270.894531 477.035156 273.617188 476.945312 276.621094 C 476.855469 279.625 478.386719 282.445312 480.953125 284.003906 Z M 480.953125 284.003906 "/>
<path style=" stroke:none;fill-rule:nonzero;fill:rgb(38.823529%,100%,47.058824%);fill-opacity:1;" d="M 474.089844 322.171875 C 477.523438 325.238281 493.023438 327.90625 493.023438 327.90625 C 493.023438 327.90625 488.609375 312.800781 485.171875 309.734375 C 482.96875 307.632812 479.800781 306.902344 476.898438 307.824219 C 474 308.746094 471.832031 311.179688 471.25 314.167969 C 470.664062 317.152344 471.753906 320.222656 474.089844 322.171875 Z M 474.089844 322.171875 "/>
</g>
<mask id="mask40">
  <g filter="url(#alpha)">
<rect x="0" y="0" width="562" height="387" style="fill:rgb(0%,0%,0%);fill-opacity:0.101961;stroke:none;"/>
  </g>
</mask>
<clipPath id="clip41">
  <rect x="0" y="0" width="562" height="387"/>
</clipPath>
<g id="surface125" clip-path="url(#clip41)">
<path style="fill:none;stroke-width:2;stroke-linecap:butt;stroke-linejoin:miter;stroke:rgb(32.54902%,32.941176%,38.039216%);stroke-opacity:1;stroke-miterlimit:10;" d="M 882.631186 727.788871 C 882.631186 727.788871 874.860153 688.396722 890.857582 661.401799 C 897.650703 650.115996 900.591901 636.935552 899.248207 623.837159 C 898.568895 617.631086 897.31478 611.492147 895.508257 605.509851 " transform="matrix(0.523277,0,0,0.523681,-32.96648,-42.156292)"/>
<path style=" stroke:none;fill-rule:nonzero;fill:rgb(38.823529%,100%,47.058824%);fill-opacity:1;" d="M 440.859375 265.992188 C 440.636719 268.453125 435.523438 275.183594 435.523438 275.183594 C 435.523438 275.183594 431.726562 267.636719 431.949219 265.175781 C 432.300781 262.832031 434.421875 261.167969 436.78125 261.382812 C 439.144531 261.601562 440.925781 263.621094 440.84375 265.992188 Z M 440.859375 265.992188 "/>
<path style=" stroke:none;fill-rule:nonzero;fill:rgb(38.823529%,100%,47.058824%);fill-opacity:1;" d="M 446.96875 280.304688 C 445.441406 282.25 437.496094 285.117188 437.496094 285.117188 C 437.496094 285.117188 438.40625 276.738281 439.933594 274.773438 C 441.484375 272.917969 444.230469 272.628906 446.132812 274.125 C 448.035156 275.621094 448.40625 278.359375 446.96875 280.304688 Z M 446.96875 280.304688 "/>
<path style=" stroke:none;fill-rule:nonzero;fill:rgb(38.823529%,100%,47.058824%);fill-opacity:1;" d="M 444.507812 303.578125 C 442.210938 304.484375 433.90625 302.949219 433.90625 302.949219 C 433.90625 302.949219 438.929688 296.140625 441.234375 295.25 C 443.507812 294.433594 446.019531 295.574219 446.90625 297.824219 C 447.792969 300.074219 446.734375 302.621094 444.515625 303.578125 Z M 444.507812 303.578125 "/>
<path style=" stroke:none;fill-rule:nonzero;fill:rgb(38.823529%,100%,47.058824%);fill-opacity:1;" d="M 438.683594 320.753906 C 436.589844 322.039062 428.128906 321.925781 428.128906 321.925781 C 428.128906 321.925781 431.933594 314.382812 434.046875 313.097656 C 435.417969 312.222656 437.152344 312.160156 438.582031 312.929688 C 440.011719 313.699219 440.910156 315.1875 440.929688 316.8125 C 440.953125 318.4375 440.09375 319.945312 438.683594 320.753906 Z M 438.683594 320.753906 "/>
<path style=" stroke:none;fill-rule:nonzero;fill:rgb(38.823529%,100%,47.058824%);fill-opacity:1;" d="M 428.105469 284.734375 C 429.710938 286.617188 437.769531 289.144531 437.769531 289.144531 C 437.769531 289.144531 436.507812 280.765625 434.902344 278.914062 C 433.292969 277.03125 430.46875 276.8125 428.589844 278.421875 C 426.710938 280.027344 426.492188 282.855469 428.097656 284.734375 Z M 428.105469 284.734375 "/>
<path style=" stroke:none;fill-rule:nonzero;fill:rgb(38.823529%,100%,47.058824%);fill-opacity:1;" d="M 421.546875 304.921875 C 423.640625 306.234375 432.085938 306.238281 432.085938 306.238281 C 432.085938 306.238281 428.382812 298.644531 426.289062 297.335938 C 424.195312 296.074219 421.480469 296.726562 420.183594 298.796875 C 418.890625 300.871094 419.496094 303.601562 421.546875 304.929688 Z M 421.546875 304.921875 "/>
<path style=" stroke:none;fill-rule:nonzero;fill:rgb(38.823529%,100%,47.058824%);fill-opacity:1;" d="M 417.867188 325.421875 C 419.710938 327.066406 428.035156 328.5 428.035156 328.5 C 428.035156 328.5 425.671875 320.386719 423.847656 318.742188 C 422 317.148438 419.214844 317.332031 417.589844 319.15625 C 415.964844 320.980469 416.101562 323.769531 417.894531 325.425781 Z M 417.867188 325.421875 "/>
</g>
<mask id="mask41">
  <g filter="url(#alpha)">
<rect x="0" y="0" width="562" height="387" style="fill:rgb(0%,0%,0%);fill-opacity:0.101961;stroke:none;"/>
  </g>
</mask>
<clipPath id="clip42">
  <rect x="0" y="0" width="562" height="387"/>
</clipPath>
<g id="surface128" clip-path="url(#clip42)">
<path style="fill:none;stroke-width:2;stroke-linecap:butt;stroke-linejoin:miter;stroke:rgb(32.54902%,32.941176%,38.039216%);stroke-opacity:1;stroke-miterlimit:10;" d="M 249.631686 733.793544 C 249.631686 733.793544 241.860654 694.401395 257.858082 667.399013 C 264.643739 656.12067 267.592402 642.940225 266.248707 629.841832 C 265.569395 623.628301 264.31528 617.489361 262.508758 611.507066 " transform="matrix(0.523277,0,0,0.523681,-32.96648,-42.156292)"/>
<path style=" stroke:none;fill-rule:nonzero;fill:rgb(38.823529%,100%,47.058824%);fill-opacity:1;" d="M 109.625 269.136719 C 109.402344 271.597656 104.289062 278.324219 104.289062 278.324219 C 104.289062 278.324219 100.488281 270.78125 100.714844 268.316406 C 101.066406 265.972656 103.1875 264.308594 105.546875 264.527344 C 107.910156 264.742188 109.691406 266.765625 109.609375 269.136719 Z M 109.625 269.136719 "/>
<path style=" stroke:none;fill-rule:nonzero;fill:rgb(38.823529%,100%,47.058824%);fill-opacity:1;" d="M 115.734375 283.449219 C 114.207031 285.390625 106.261719 288.261719 106.261719 288.261719 C 106.261719 288.261719 107.171875 279.882812 108.699219 277.917969 C 110.25 276.058594 112.996094 275.773438 114.898438 277.265625 C 116.800781 278.761719 117.167969 281.5 115.734375 283.449219 Z M 115.734375 283.449219 "/>
<path style=" stroke:none;fill-rule:nonzero;fill:rgb(38.823529%,100%,47.058824%);fill-opacity:1;" d="M 113.273438 306.71875 C 110.976562 307.625 102.671875 306.089844 102.671875 306.089844 C 102.671875 306.089844 107.695312 299.285156 110 298.394531 C 112.273438 297.578125 114.785156 298.714844 115.671875 300.964844 C 116.558594 303.214844 115.5 305.761719 113.277344 306.71875 Z M 113.273438 306.71875 "/>
<path style=" stroke:none;fill-rule:nonzero;fill:rgb(38.823529%,100%,47.058824%);fill-opacity:1;" d="M 107.449219 323.894531 C 105.355469 325.179688 96.894531 325.070312 96.894531 325.070312 C 96.894531 325.070312 100.699219 317.523438 102.8125 316.242188 C 104.183594 315.363281 105.917969 315.300781 107.347656 316.070312 C 108.773438 316.84375 109.675781 318.328125 109.695312 319.953125 C 109.71875 321.578125 108.859375 323.085938 107.449219 323.894531 Z M 107.449219 323.894531 "/>
<path style=" stroke:none;fill-rule:nonzero;fill:rgb(38.823529%,100%,47.058824%);fill-opacity:1;" d="M 96.867188 287.878906 C 98.476562 289.757812 106.535156 292.289062 106.535156 292.289062 C 106.535156 292.289062 105.273438 283.910156 103.667969 282.054688 C 102.058594 280.175781 99.234375 279.953125 97.355469 281.5625 C 95.476562 283.171875 95.257812 285.996094 96.863281 287.878906 Z M 96.867188 287.878906 "/>
<path style=" stroke:none;fill-rule:nonzero;fill:rgb(38.823529%,100%,47.058824%);fill-opacity:1;" d="M 90.3125 308.066406 C 92.40625 309.375 100.851562 309.378906 100.851562 309.378906 C 100.851562 309.378906 97.144531 301.785156 95.054688 300.476562 C 92.960938 299.214844 90.246094 299.867188 88.949219 301.941406 C 87.65625 304.011719 88.261719 306.742188 90.3125 308.070312 Z M 90.3125 308.066406 "/>
<path style=" stroke:none;fill-rule:nonzero;fill:rgb(38.823529%,100%,47.058824%);fill-opacity:1;" d="M 86.632812 328.5625 C 88.476562 330.207031 96.800781 331.640625 96.800781 331.640625 C 96.800781 331.640625 94.4375 323.53125 92.613281 321.886719 C 90.765625 320.292969 87.980469 320.476562 86.355469 322.296875 C 84.730469 324.121094 84.867188 326.910156 86.660156 328.566406 Z M 86.632812 328.5625 "/>
</g>
</defs>
<g id="surface1">
<use xlink:href="#surface5" mask="url(#mask0)"/>
<use xlink:href="#surface8" mask="url(#mask1)"/>
<use xlink:href="#surface11" mask="url(#mask2)"/>
<use xlink:href="#surface14" mask="url(#mask3)"/>
<use xlink:href="#surface17" mask="url(#mask4)"/>
<use xlink:href="#surface20" mask="url(#mask5)"/>
<use xlink:href="#surface23" mask="url(#mask6)"/>
<path style=" stroke:none;fill-rule:nonzero;fill:url(#linear0);" d="M 376.1875 95.417969 L 357.007812 39.691406 L 350.109375 40.738281 L 343.933594 41.527344 C 344.089844 39.433594 344.363281 31.914062 340.535156 27.96875 C 340.160156 26.617188 339.183594 25.085938 337.300781 23.355469 C 328.121094 14.933594 326.210938 32.160156 326.210938 32.160156 C 326.210938 32.160156 324.117188 35.792969 321.234375 40.875 L 319.722656 40.585938 L 319.292969 44.335938 C 312.910156 55.628906 304.425781 70.917969 304.425781 72.351562 C 304.425781 74.652344 303.28125 77.707031 303.28125 77.707031 C 303.28125 77.707031 296.78125 88.421875 294.484375 93.785156 C 293.148438 96.949219 291.191406 99.8125 288.730469 102.207031 C 288.730469 102.207031 288.175781 102.632812 287.261719 103.253906 C 287.320312 102.242188 287.496094 101.238281 287.785156 100.265625 C 288.625 97.523438 290.570312 95.179688 291.089844 92.363281 C 291.210938 91.6875 291.253906 91 291.226562 90.3125 C 291.34375 87.007812 289.738281 83.757812 289.070312 80.453125 C 288.289062 76.625 288.707031 72.410156 286.667969 69.082031 C 285.097656 66.542969 282.3125 64.960938 279.417969 64.234375 C 276.761719 63.570312 274.144531 63.804688 271.464844 63.523438 C 269.007812 63.261719 266.65625 62.171875 264.199219 61.769531 C 262.882812 61.480469 261.523438 61.480469 260.210938 61.769531 C 256.050781 62.914062 254.746094 68.164062 251.535156 71.046875 C 250.378906 72.09375 248.960938 72.816406 247.914062 73.964844 C 246.390625 75.636719 245.863281 77.964844 245.941406 80.25 C 245.921875 81.015625 245.964844 81.78125 246.078125 82.539062 C 246.472656 85.277344 247.53125 87.867188 248.167969 90.554688 C 248.652344 92.542969 248.914062 94.578125 248.949219 96.625 C 248.949219 97.085938 248.949219 97.546875 248.90625 98 C 248.925781 98.925781 248.679688 99.832031 248.199219 100.621094 C 247.621094 101.421875 246.664062 101.808594 245.808594 102.320312 C 243.023438 100.109375 240.929688 97.136719 239.78125 93.765625 C 239.78125 93.765625 239.640625 93.941406 239.398438 94.289062 L 239.398438 93.765625 C 239.398438 93.765625 234.167969 86.078125 233.371094 79.796875 L 235.191406 79.988281 L 239.378906 21.046875 L 228.6875 19.476562 C 228.390625 16.433594 227.578125 12.019531 225.429688 8.796875 C 227.222656 5.257812 228.128906 0.464844 220.257812 -0.0117188 C 211.046875 -0.570312 211.613281 6.609375 212.59375 10.535156 C 212.148438 12.679688 211.972656 14.871094 212.070312 17.054688 L 202.648438 15.683594 L 202.597656 16.449219 L 200.359375 16.449219 L 193.503906 76.578125 L 199.34375 76.285156 L 220.746094 78.515625 C 222.457031 94.085938 225.144531 113.324219 228.335938 117.859375 C 228.445312 118.011719 228.5625 118.15625 228.6875 118.292969 L 228.6875 145.84375 C 228.6875 145.84375 228.304688 181.457031 221.800781 187.179688 C 225.792969 185.757812 230.011719 185.097656 234.246094 185.226562 C 234.171875 185.460938 234.097656 185.710938 234.023438 185.980469 C 233.074219 189.496094 232.410156 193.082031 232.042969 196.703125 C 231.953125 197.503906 231.871094 198.339844 231.796875 199.207031 C 231.195312 207.183594 231.308594 215.199219 232.125 223.15625 C 234.804688 251.476562 239.011719 271.765625 239.011719 271.765625 L 240.183594 288.230469 C 240.183594 288.230469 239.039062 316.167969 242.09375 325.351562 C 243.246094 326.414062 244.570312 327.273438 246.007812 327.890625 C 246.035156 328.152344 246.066406 328.414062 246.09375 328.695312 C 246.117188 328.972656 246.160156 329.398438 246.195312 329.765625 C 244.824219 330.390625 242.265625 332.863281 241.710938 342.570312 C 241.710938 342.570312 242.476562 349.84375 240.566406 353.285156 C 238.65625 356.726562 239.800781 366.679688 245.539062 367.828125 C 249.203125 368.503906 252.960938 368.503906 256.625 367.828125 C 256.625 367.828125 259.304688 367.828125 257.390625 358.261719 L 257.054688 355.808594 C 257.011719 351.070312 257.210938 345.996094 258.152344 344.480469 C 260.0625 341.417969 257.390625 338.359375 257.390625 338.359375 C 257.390625 338.359375 257.203125 338.464844 256.894531 338.605469 C 256.402344 335.960938 255.757812 331.667969 255.988281 328.390625 C 255.988281 328.113281 256.035156 327.867188 256.066406 327.578125 C 257.234375 326.96875 258.320312 326.21875 259.304688 325.34375 L 259.304688 288.992188 C 259.304688 288.992188 258.921875 233.117188 263.128906 231.964844 C 263.128906 231.964844 265.039062 252.246094 264.277344 262.203125 C 263.511719 272.15625 265.421875 282.871094 265.421875 282.871094 L 266.1875 323.441406 C 266.1875 323.441406 266.917969 323.792969 268.101562 324.207031 L 268.023438 324.945312 C 267.558594 329.453125 266.808594 336.261719 266.128906 340.429688 C 265.195312 340.800781 264.503906 341.601562 264.269531 342.574219 C 263.125 346.402344 263.890625 355.972656 261.589844 358.652344 C 260.238281 360.222656 258.613281 363.425781 259.410156 365.6875 C 258.914062 367.671875 259.132812 370.769531 265.035156 371.285156 C 273.832031 372.050781 277.65625 367.457031 277.65625 367.457031 C 277.65625 367.457031 278.800781 365.542969 277.65625 362.097656 C 276.511719 358.652344 278.039062 352.53125 278.039062 352.53125 C 278.039062 352.53125 278.859375 347.335938 277.515625 346.65625 C 277.398438 346.039062 277.296875 345.644531 277.296875 345.644531 C 277.3125 344.46875 276.878906 343.328125 276.085938 342.460938 C 276.054688 338.453125 276.21875 331.042969 277.625 326.164062 C 277.707031 325.886719 277.792969 325.640625 277.882812 325.351562 C 279.015625 325.15625 280.109375 324.773438 281.113281 324.214844 C 281.113281 324.214844 280.734375 315.414062 283.414062 309.292969 C 286.089844 303.167969 284.558594 278.671875 284.558594 278.671875 C 284.558594 278.671875 283.414062 272.234375 285.027344 267.019531 C 286.882812 261.238281 288.269531 255.320312 289.183594 249.320312 L 291.4375 233.507812 C 291.4375 233.507812 297.378906 214.265625 289.554688 194.511719 C 289.238281 193.695312 288.886719 192.875 288.507812 192.058594 C 287.859375 190.640625 287.136719 189.214844 286.332031 187.800781 C 286.207031 187.582031 286.070312 187.355469 285.941406 187.136719 C 286.761719 186.933594 287.226562 186.8125 287.226562 186.8125 C 287.226562 186.8125 276.902344 162.722656 283.402344 150.453125 C 283.402344 150.453125 287.066406 146.789062 287.589844 142.761719 C 288.238281 137.433594 288.941406 132.113281 290.105469 126.878906 L 290.308594 125.957031 C 290.308594 125.957031 290.339844 125.777344 290.394531 125.457031 C 290.539062 125.363281 290.679688 125.265625 290.820312 125.160156 C 301.84375 117.105469 311.34375 83.476562 311.34375 83.476562 L 314.40625 77.714844 L 315.859375 74.636719 L 312.878906 100.675781 L 336.207031 106.4375 L 351.121094 105.292969 L 351.078125 102.082031 L 362.441406 101.195312 Z M 228.3125 19.484375 L 224.167969 18.878906 C 223.441406 15.132812 222.949219 12.679688 222.949219 12.679688 C 223.816406 11.605469 224.585938 10.453125 225.246094 9.238281 C 227.25 12.304688 228.019531 16.496094 228.3125 19.464844 Z M 212.832031 11.449219 C 213.121094 12.433594 213.382812 13.066406 213.382812 13.066406 L 213.90625 17.386719 L 212.492188 17.183594 C 212.410156 15.257812 212.527344 13.328125 212.835938 11.425781 Z M 343.546875 41.617188 L 337.9375 42.339844 C 338.726562 40.015625 339.707031 36.203125 339.136719 32.75 C 340.25 31.730469 340.816406 30.246094 340.675781 28.746094 C 344.007812 32.730469 343.695312 39.769531 343.546875 41.601562 Z M 334.234375 35.640625 C 335.90625 35.082031 337.457031 34.210938 338.800781 33.070312 C 339.28125 36.457031 338.277344 40.183594 337.515625 42.390625 L 332.28125 43.0625 L 330.835938 42.785156 Z M 334.234375 35.640625 "/>
<path style=" stroke:none;fill-rule:nonzero;fill:rgb(38.823529%,100%,47.058824%);fill-opacity:1;" d="M 375.191406 96.410156 L 361.539062 102.113281 L 345.675781 46.765625 L 349.398438 42.34375 L 356.214844 41.285156 Z M 375.191406 96.410156 "/>
<use xlink:href="#surface26" mask="url(#mask7)"/>
<path style=" stroke:none;fill-rule:nonzero;fill:rgb(38.823529%,100%,47.058824%);fill-opacity:1;" d="M 349.398438 42.34375 L 325.703125 45.386719 L 337.847656 103.957031 L 361.539062 102.113281 Z M 349.398438 42.34375 "/>
<use xlink:href="#surface29" mask="url(#mask8)"/>
<path style=" stroke:none;fill-rule:nonzero;fill:rgb(32.54902%,32.941176%,38.039216%);fill-opacity:1;" d="M 343.238281 43.664062 L 342.863281 43.617188 C 342.863281 43.476562 344.433594 29.652344 335.761719 27.90625 L 335.835938 27.535156 C 344.875 29.351562 343.269531 43.523438 343.238281 43.664062 Z M 343.238281 43.664062 "/>
<path style=" stroke:none;fill-rule:nonzero;fill:rgb(46.666667%,30.588235%,33.333333%);fill-opacity:1;" d="M 255.589844 84.019531 L 281.691406 84.019531 L 281.691406 122.253906 L 255.589844 122.253906 Z M 255.589844 84.019531 "/>
<use xlink:href="#surface32" mask="url(#mask9)"/>
<path style=" stroke:none;fill-rule:nonzero;fill:rgb(38.823529%,100%,47.058824%);fill-opacity:1;" d="M 350.339844 106.160156 L 335.589844 107.296875 L 337.859375 49.761719 L 342.773438 46.734375 L 349.582031 47.871094 Z M 350.339844 106.160156 "/>
<use xlink:href="#surface35" mask="url(#mask10)"/>
<path style=" stroke:none;fill-rule:nonzero;fill:rgb(38.823529%,100%,47.058824%);fill-opacity:1;" d="M 342.773438 46.734375 L 319.324219 42.1875 L 312.515625 101.621094 L 335.589844 107.296875 Z M 342.773438 46.734375 "/>
<path style=" stroke:none;fill-rule:nonzero;fill:rgb(38.823529%,100%,47.058824%);fill-opacity:1;" d="M 204.714844 18.34375 L 201.308594 18.34375 L 194.503906 77.773438 L 209.628906 77.019531 Z M 204.714844 18.34375 "/>
<use xlink:href="#surface38" mask="url(#mask11)"/>
<path style=" stroke:none;fill-rule:nonzero;fill:rgb(38.823529%,100%,47.058824%);fill-opacity:1;" d="M 203.582031 17.585938 L 199.421875 77.394531 L 235.730469 81.179688 L 239.890625 22.886719 Z M 203.582031 17.585938 "/>
<path style=" stroke:none;fill-rule:nonzero;fill:rgb(36.078431%,23.921569%,32.54902%);fill-opacity:1;" d="M 247.457031 327.988281 C 247.457031 327.988281 242.921875 327.609375 242.164062 340.859375 C 242.164062 340.859375 242.921875 348.046875 241.027344 351.457031 C 239.132812 354.867188 240.269531 364.707031 245.945312 365.84375 C 249.578125 366.511719 253.300781 366.511719 256.933594 365.84375 C 256.933594 365.84375 259.582031 365.84375 257.691406 356.378906 L 253.910156 328.746094 Z M 247.457031 327.988281 "/>
<use xlink:href="#surface41" mask="url(#mask12)"/>
<path style=" stroke:none;fill-rule:nonzero;fill:rgb(97.254902%,74.117647%,77.254902%);fill-opacity:1;" d="M 271.242188 109.398438 C 270.917969 115.03125 272.042969 118.300781 272.042969 118.300781 L 262.210938 120.949219 C 262.210938 120.949219 245.945312 123.222656 252.375 116.761719 C 254.601562 114.535156 255.695312 110.714844 256.171875 106.683594 C 256.46875 103.929688 256.5625 101.15625 256.449219 98.390625 C 256.359375 95.796875 256.136719 93.207031 255.777344 90.636719 C 255.777344 90.636719 279.609375 82.3125 274.3125 95.9375 C 273.347656 98.402344 272.585938 100.941406 272.035156 103.53125 C 271.625 105.464844 271.359375 107.425781 271.242188 109.398438 Z M 271.242188 109.398438 "/>
<use xlink:href="#surface44" mask="url(#mask13)"/>
<path style=" stroke:none;fill-rule:nonzero;fill:rgb(97.254902%,74.117647%,77.254902%);fill-opacity:1;" d="M 284.902344 86.859375 C 284.902344 95.847656 277.621094 103.132812 268.640625 103.132812 C 259.65625 103.132812 252.375 95.847656 252.375 86.859375 C 252.375 77.867188 259.65625 70.582031 268.640625 70.582031 C 277.621094 70.582031 284.902344 77.867188 284.902344 86.859375 Z M 284.902344 86.859375 "/>
<path style=" stroke:none;fill-rule:nonzero;fill:rgb(97.254902%,74.117647%,77.254902%);fill-opacity:1;" d="M 239.890625 94.808594 L 239.890625 99.730469 L 231.570312 121.304688 L 229.300781 119.03125 C 229.175781 118.898438 229.058594 118.753906 228.953125 118.601562 C 223.460938 110.789062 219.460938 58.847656 219.460938 58.847656 L 214.171875 14.925781 C 214.171875 14.925781 208.5 1.308594 220.976562 2.054688 C 233.449219 2.796875 223.621094 14.542969 223.621094 14.542969 C 223.621094 14.542969 231.941406 56.179688 230.808594 57.695312 C 229.671875 59.207031 230.808594 63.753906 230.808594 63.753906 C 230.808594 63.753906 234.214844 72.460938 233.832031 78.890625 C 233.449219 85.324219 239.890625 94.808594 239.890625 94.808594 Z M 239.890625 94.808594 "/>
<path style=" stroke:none;fill-rule:nonzero;fill:rgb(97.254902%,74.117647%,77.254902%);fill-opacity:1;" d="M 333.695312 37.269531 L 314.023438 78.90625 L 311 84.574219 C 311 84.574219 301.582031 117.839844 290.703125 125.804688 C 290.078125 126.269531 289.398438 126.664062 288.683594 126.972656 L 286.410156 108.800781 L 288.503906 103.519531 L 288.660156 103.117188 C 291.085938 100.75 293.015625 97.917969 294.332031 94.792969 C 296.605469 89.492188 303.035156 78.890625 303.035156 78.890625 C 303.035156 78.890625 304.171875 75.867188 304.171875 73.59375 C 304.171875 71.320312 325.730469 33.84375 325.730469 33.84375 C 325.730469 33.84375 327.617188 16.808594 336.71875 25.136719 C 345.820312 33.464844 333.695312 37.269531 333.695312 37.269531 Z M 333.695312 37.269531 "/>
<path style=" stroke:none;fill-rule:nonzero;fill:rgb(97.254902%,74.117647%,77.254902%);fill-opacity:1;" d="M 257.667969 339.339844 C 257.667969 339.339844 244.804688 344.640625 246.316406 339.71875 C 247.238281 336.730469 246.898438 331.09375 246.488281 327.148438 C 246.226562 324.578125 245.933594 322.703125 245.933594 322.703125 L 256.925781 323.839844 C 256.539062 324.796875 256.324219 325.816406 256.289062 326.851562 C 255.929688 331.871094 257.667969 339.339844 257.667969 339.339844 Z M 257.667969 339.339844 "/>
<path style=" stroke:none;fill-rule:nonzero;fill:rgb(97.254902%,74.117647%,77.254902%);fill-opacity:1;" d="M 277.667969 324.613281 C 275.683594 331.503906 276.203125 343.507812 276.203125 343.507812 C 276.203125 343.507812 264.476562 345.023438 265.609375 341.996094 C 266.402344 339.898438 267.558594 329.519531 268.183594 323.421875 C 268.460938 320.753906 268.636719 318.90625 268.636719 318.90625 L 279.226562 321.179688 C 278.503906 322.222656 277.976562 323.382812 277.667969 324.613281 Z M 277.667969 324.613281 "/>
<use xlink:href="#surface47" mask="url(#mask14)"/>
<use xlink:href="#surface50" mask="url(#mask15)"/>
<path style=" stroke:none;fill-rule:nonzero;fill:rgb(36.862745%,32.156863%,67.843137%);fill-opacity:1;" d="M 291.335938 232.96875 L 289.105469 248.605469 C 288.203125 254.542969 286.824219 260.398438 284.992188 266.113281 C 283.390625 271.273438 284.527344 277.632812 284.527344 277.632812 C 284.527344 277.632812 286.039062 301.859375 283.390625 307.917969 C 280.742188 313.976562 281.121094 322.679688 281.121094 322.679688 C 275.066406 326.089844 266.371094 321.921875 266.371094 321.921875 L 265.609375 281.796875 C 265.609375 281.796875 263.722656 271.199219 264.476562 261.375 C 265.226562 251.550781 263.339844 231.472656 263.339844 231.472656 C 259.152344 232.609375 259.554688 287.871094 259.554688 287.871094 L 259.554688 323.832031 C 250.476562 331.78125 242.535156 323.832031 242.535156 323.832031 C 239.507812 314.746094 240.644531 287.113281 240.644531 287.113281 L 239.507812 270.835938 C 239.507812 270.835938 235.324219 250.773438 232.707031 222.761719 C 231.898438 214.894531 231.789062 206.964844 232.382812 199.078125 C 232.457031 198.21875 232.535156 197.394531 232.621094 196.601562 C 232.984375 193.019531 233.640625 189.472656 234.578125 185.996094 C 234.878906 184.851562 235.265625 183.726562 235.730469 182.640625 L 276.375 184.53125 L 278.769531 184.640625 L 284.527344 184.90625 C 285.15625 185.855469 285.746094 186.816406 286.296875 187.78125 C 287.089844 189.179688 287.808594 190.589844 288.445312 191.972656 C 288.8125 192.777344 289.15625 193.589844 289.492188 194.394531 C 297.222656 213.921875 291.335938 232.96875 291.335938 232.96875 Z M 291.335938 232.96875 "/>
<use xlink:href="#surface53" mask="url(#mask16)"/>
<use xlink:href="#surface56" mask="url(#mask17)"/>
<path style=" stroke:none;fill-rule:nonzero;fill:rgb(36.078431%,23.921569%,32.54902%);fill-opacity:1;" d="M 250.828125 337.328125 C 248.898438 337.023438 245.945312 335.960938 246.871094 332.25 C 246.871094 332.25 243.296875 331.011719 243.675781 345.777344 C 243.675781 345.777344 243.296875 352.964844 242.539062 354.484375 C 241.78125 356.003906 242.539062 365.082031 250.484375 364.324219 C 250.484375 364.324219 256.15625 366.214844 257.667969 363.1875 C 257.667969 363.1875 256.53125 345.777344 258.425781 342.765625 C 260.320312 339.753906 257.667969 336.707031 257.667969 336.707031 C 257.667969 336.707031 254.988281 338.191406 253.0625 337.753906 C 252.328125 337.550781 251.574219 337.449219 250.828125 337.328125 Z M 250.828125 337.328125 "/>
<path style=" stroke:none;fill-rule:nonzero;fill:rgb(36.078431%,23.921569%,32.54902%);fill-opacity:1;" d="M 260.316406 362.050781 C 260.316406 362.050781 256.53125 368.488281 265.234375 369.242188 C 273.9375 369.996094 277.714844 365.457031 277.714844 365.457031 C 277.714844 365.457031 278.847656 363.566406 277.714844 360.15625 C 276.578125 356.746094 278.089844 350.691406 278.089844 350.691406 C 278.089844 350.691406 279.226562 343.503906 276.578125 345.015625 C 273.929688 346.53125 260.316406 362.050781 260.316406 362.050781 Z M 260.316406 362.050781 "/>
<use xlink:href="#surface59" mask="url(#mask18)"/>
<path style=" stroke:none;fill-rule:nonzero;fill:rgb(36.078431%,23.921569%,32.54902%);fill-opacity:1;" d="M 270.152344 338.960938 C 270.152344 338.960938 265.617188 337.074219 264.480469 340.851562 C 263.34375 344.632812 264.101562 354.101562 261.832031 356.753906 C 259.5625 359.402344 256.535156 366.59375 265.617188 366.214844 C 274.695312 365.839844 276.605469 362.804688 276.605469 362.804688 C 276.605469 362.804688 276.226562 353.34375 277.363281 350.691406 C 278.5 348.042969 277.363281 343.886719 277.363281 343.886719 C 277.363281 343.886719 277.714844 338.558594 270.152344 338.960938 Z M 270.152344 338.960938 "/>
<use xlink:href="#surface62" mask="url(#mask19)"/>
<use xlink:href="#surface65" mask="url(#mask20)"/>
<path style=" stroke:none;fill-rule:nonzero;fill:rgb(32.54902%,32.941176%,38.039216%);fill-opacity:1;" d="M 229.488281 24.78125 L 229.113281 24.78125 C 229.113281 24.617188 229.378906 8.652344 220.214844 7.179688 C 218.410156 6.890625 216.933594 7.300781 215.832031 8.394531 C 212.046875 12.148438 213.613281 22.753906 213.628906 22.859375 L 213.257812 22.917969 C 213.1875 22.472656 211.648438 12.011719 215.570312 8.128906 C 216.761719 6.9375 218.351562 6.492188 220.277344 6.800781 C 229.761719 8.320312 229.492188 24.617188 229.488281 24.78125 Z M 229.488281 24.78125 "/>
<path style=" stroke:none;fill-rule:nonzero;fill:rgb(32.54902%,32.941176%,38.039216%);fill-opacity:1;" d="M 336.515625 46.058594 L 336.175781 45.894531 C 336.230469 45.769531 342.0625 33.132812 334.359375 28.730469 L 334.546875 28.398438 C 342.546875 32.976562 336.578125 45.925781 336.515625 46.058594 Z M 336.515625 46.058594 "/>
<use xlink:href="#surface68" mask="url(#mask21)"/>
<use xlink:href="#surface71" mask="url(#mask22)"/>
<use xlink:href="#surface74" mask="url(#mask23)"/>
<use xlink:href="#surface77" mask="url(#mask24)"/>
<path style=" stroke:none;fill-rule:nonzero;fill:rgb(97.254902%,74.117647%,77.254902%);fill-opacity:1;" d="M 215.121094 5.285156 C 215.121094 5.285156 220.792969 14.746094 224.574219 5.285156 "/>
<path style=" stroke:none;fill-rule:nonzero;fill:rgb(97.254902%,74.117647%,77.254902%);fill-opacity:1;" d="M 331.804688 24.773438 C 331.804688 24.773438 329.535156 36.132812 338.609375 30.835938 "/>
<use xlink:href="#surface80" mask="url(#mask25)"/>
<path style=" stroke:none;fill-rule:nonzero;fill:rgb(92.156863%,39.215686%,45.882353%);fill-opacity:1;" d="M 271.210938 110.140625 C 276.441406 112.605469 288.6875 103.132812 288.6875 103.132812 C 293.984375 104.648438 290.199219 126.605469 290.199219 126.605469 L 289.996094 127.515625 C 288.84375 132.695312 288.148438 137.957031 287.503906 143.226562 C 287.019531 147.203125 283.390625 150.835938 283.390625 150.835938 C 276.960938 162.949219 287.175781 186.796875 287.175781 186.796875 C 287.175781 186.796875 254.265625 195.503906 245.191406 188.6875 C 236.117188 181.867188 222.496094 187.175781 222.496094 187.175781 C 228.929688 181.496094 229.300781 146.289062 229.300781 146.289062 L 229.300781 119.058594 C 230.058594 107.699219 240.289062 94.832031 240.289062 94.832031 C 244.476562 106.570312 256.109375 107.34375 256.109375 107.34375 C 258.6875 111.535156 261.863281 110.355469 261.863281 110.355469 Z M 271.210938 110.140625 "/>
<use xlink:href="#surface83" mask="url(#mask26)"/>
<path style=" stroke:none;fill-rule:nonzero;fill:rgb(46.666667%,30.588235%,33.333333%);fill-opacity:1;" d="M 264.40625 63.160156 C 263.109375 62.878906 261.765625 62.878906 260.464844 63.160156 C 256.355469 64.296875 255.0625 69.488281 251.886719 72.335938 C 250.742188 73.382812 249.335938 74.085938 248.300781 75.222656 C 246.457031 77.242188 246.085938 80.238281 246.480469 82.945312 C 246.871094 85.652344 247.917969 88.21875 248.574219 90.875 C 249.21875 93.53125 249.464844 96.273438 249.300781 99 C 249.3125 99.90625 249.070312 100.800781 248.597656 101.574219 C 247.839844 102.621094 246.441406 102.949219 245.460938 103.789062 C 242.457031 106.375 244.9375 111.742188 242.734375 115.046875 C 241.785156 116.476562 240.011719 117.417969 239.652344 119.09375 C 239.394531 120.285156 239.9375 121.484375 240.472656 122.578125 C 241.875 125.457031 243.328125 128.417969 245.703125 130.5625 C 248.082031 132.710938 251.015625 133.789062 253.9375 134.882812 C 254.820312 135.214844 255.929688 135.503906 256.605469 134.847656 C 257.4375 134.03125 256.808594 132.648438 256.234375 131.636719 C 255.324219 130.066406 254.609375 128.171875 255.144531 126.402344 C 255.679688 124.628906 257.390625 123.457031 258.539062 121.980469 C 261.507812 118.15625 260.535156 112.667969 259.0625 108.0625 C 258.441406 106.117188 257.742188 104.050781 258.269531 102.074219 C 258.492188 101.226562 258.9375 100.457031 259.222656 99.625 C 260.476562 95.917969 258.367188 91.847656 258.984375 87.984375 C 259.308594 86.472656 259.835938 85.015625 260.554688 83.652344 L 263.878906 76.503906 C 264.210938 75.644531 264.710938 74.859375 265.347656 74.191406 C 266.382812 73.359375 267.691406 72.949219 269.011719 73.046875 C 271.734375 73.109375 274.3125 74.285156 276.144531 76.300781 C 279.703125 80.257812 279.476562 86.25 279.046875 91.527344 L 278.738281 95.339844 C 278.515625 98.085938 278.214844 101.011719 276.488281 103.148438 C 275.144531 104.804688 272.972656 105.929688 272.417969 107.992188 C 271.9375 109.769531 272.84375 111.695312 272.367188 113.472656 C 271.652344 116.125 268.378906 117.085938 266.648438 119.230469 C 265.15625 121.140625 264.984375 123.769531 266.21875 125.855469 C 266.875 126.902344 267.929688 127.949219 267.789062 129.179688 C 267.667969 130.171875 266.777344 130.972656 266.78125 131.96875 C 266.871094 132.878906 267.507812 133.640625 268.390625 133.890625 C 269.253906 134.113281 270.160156 134.15625 271.042969 134.015625 L 280.425781 133.167969 C 281.011719 133.164062 281.589844 133.003906 282.09375 132.707031 C 282.746094 132.234375 282.960938 131.367188 283.050781 130.5625 C 283.429688 127.222656 282.527344 123.574219 284.195312 120.652344 C 284.71875 119.714844 285.488281 118.933594 286.070312 118.03125 C 289.273438 113.003906 286.042969 106.1875 287.785156 100.484375 C 288.613281 97.777344 290.539062 95.453125 291.050781 92.671875 C 291.730469 88.960938 289.800781 85.339844 289.054688 81.671875 C 288.285156 77.886719 288.699219 73.71875 286.675781 70.425781 C 285.132812 67.910156 282.371094 66.34375 279.515625 65.628906 C 276.898438 64.96875 274.28125 65.203125 271.664062 64.921875 C 269.164062 64.636719 266.839844 63.558594 264.40625 63.160156 Z M 264.40625 63.160156 "/>
<use xlink:href="#surface86" mask="url(#mask27)"/>
<use xlink:href="#surface89" mask="url(#mask28)"/>
<use xlink:href="#surface92" mask="url(#mask29)"/>
<use xlink:href="#surface95" mask="url(#mask30)"/>
<use xlink:href="#surface98" mask="url(#mask31)"/>
<use xlink:href="#surface101" mask="url(#mask32)"/>
<use xlink:href="#surface104" mask="url(#mask33)"/>
<use xlink:href="#surface107" mask="url(#mask34)"/>
<use xlink:href="#surface110" mask="url(#mask35)"/>
<use xlink:href="#surface113" mask="url(#mask36)"/>
<use xlink:href="#surface116" mask="url(#mask37)"/>
<use xlink:href="#surface119" mask="url(#mask38)"/>
<use xlink:href="#surface122" mask="url(#mask39)"/>
<use xlink:href="#surface125" mask="url(#mask40)"/>
<use xlink:href="#surface128" mask="url(#mask41)"/>
</g>
</svg>
