<?xml version="1.0" encoding="UTF-8"?>
<svg width="821px" height="600px" viewBox="0 0 821 600" version="1.1" xmlns="http://www.w3.org/2000/svg" xmlns:xlink="http://www.w3.org/1999/xlink">
    <!-- Generator: Sketch 59.1 (86144) - https://sketch.com -->
    <title>wfh</title>
    <desc>Created with Sketch.</desc>
    <defs>
        <polygon id="path-1" points="0.0002484375 0.735452261 794.176844 0.735452261 794.176844 494.381789 0.0002484375 494.381789"></polygon>
        <polygon id="path-3" points="0 516 794 516 794 1 0 1"></polygon>
    </defs>
    <g id="wfh" stroke="none" stroke-width="1" fill="none" fill-rule="evenodd">
        <g id="Group-94" transform="translate(11.000000, 55.000000)">
            <g id="Group-3">
                <mask id="mask-2" fill="white">
                    <use xlink:href="#path-1"></use>
                </mask>
                <g id="Clip-2"></g>
                <path d="M118.63578,494.381789 L238.597967,494.381789 C243.02678,492.801437 247.375264,491.052769 251.635139,489.13993 C253.440452,490.928397 255.289655,492.67209 257.171155,494.381789 L706.190467,494.381789 C759.269139,458.53699 794.177092,397.774704 794.177092,328.847819 C794.177092,229.657116 721.882608,147.38596 627.173264,131.938975 C602.721217,55.8217387 531.43042,0.734954774 447.278014,0.734954774 C350.831264,0.734954774 271.269983,73.0878693 259.764842,166.537568 C235.416311,154.08297 207.835608,147.05596 178.616045,147.05596 C79.9689672,147.05596 0.0002484375,227.123246 0.0002484375,325.891915 C0.0002484375,403.591161 49.4956234,469.705583 118.63578,494.381789" id="Fill-1" fill="#FFF5FF" mask="url(#mask-2)"></path>
            </g>
            <path d="M660.16998,238.540594 C660.16998,238.540594 653.328257,230.563832 659.747306,225.496677 C659.747306,225.496677 664.43619,222.659399 668.25999,222.889538 C668.25999,222.889538 662.842529,231.970142 664.594898,232.872613 C666.347267,233.775907 669.901345,222.320767 669.901345,222.320767 C669.901345,222.320767 680.572625,221.285144 684.004177,222.935565 C684.004177,222.935565 674.883798,230.396982 676.804743,230.839998 C678.724866,231.284658 688.577935,223.961325 688.577935,223.961325 C688.577935,223.961325 698.509125,225.649555 697.979549,231.705483 C697.449151,237.760589 694.028289,239.630463 692.523439,239.470188 C691.020233,239.309092 682.222204,235.952358 682.028958,237.184421 C681.839002,238.415661 687.134759,242.440618 690.843434,242.62966 C690.843434,242.62966 683.840535,250.346694 679.187834,248.119283 C674.535133,245.892694 674.137951,242.360891 671.235975,241.036774 C668.336466,239.712656 665.860452,239.717587 667.057754,241.067185 C668.255878,242.417604 673.503941,243.729393 675.162565,246.663658 C676.822012,249.595457 678.311238,251.573003 673.495717,250.850533 C668.682663,250.125597 660.855797,246.604479 660.513711,242.572947 L660.16998,238.540594 Z" id="Fill-4" fill="#82B378"></path>
            <path d="M694,231.046891 C694,231.046891 666.981307,230.006292 661.01413,237.729283 C661.01413,237.729283 659.694498,241.679278 655.632633,245.276096 L655,247 C655,247 659.682142,242.06621 661.358454,241.76819 C661.358454,241.76819 658.737311,232.199453 694,231.046891" id="Fill-6" fill="#82B378"></path>
            <path d="M655.420441,245.641273 C655.420441,245.641273 649.417853,249.685644 649,256.912231 L650.088976,257 C650.088976,257 652.006837,249.528747 655.473312,246.606733 C658.938935,243.684719 655.420441,245.641273 655.420441,245.641273" id="Fill-8" fill="#82B378"></path>
            <path d="M636.857538,227.223248 C636.857538,227.223248 647.722061,221.119121 642.651895,212.83589 C642.651895,212.83589 638.594942,207.75049 634.248147,206.443522 C634.248147,206.443522 636.566876,218.795073 634.248147,219.084961 C631.929419,219.375673 632.654432,205.134907 632.654432,205.134907 C632.654432,205.134907 621.208585,199.613851 616.718923,200.049507 C616.718923,200.049507 623.816333,212.109522 621.499247,211.819634 C619.182161,211.528922 611.213585,199.322315 611.213585,199.322315 C611.213585,199.322315 599.477897,197.143211 597.594341,204.117003 C595.710785,211.092442 598.752884,214.580162 600.491109,215.016641 C602.230155,215.452297 613.38534,215.30653 613.09632,216.760089 C612.806479,218.212825 605.272254,220.538521 601.070791,219.230729 C601.070791,219.230729 605.707427,230.710144 611.792446,230.12872 C617.877466,229.547296 619.761022,225.768865 623.528134,225.478153 C627.295247,225.188264 630.046684,226.206168 628.163949,227.223248 C626.279572,228.239504 619.905532,227.55596 616.862612,230.150956 C613.820512,232.745127 611.357274,234.343631 617.007122,235.505655 C622.656969,236.668503 632.800584,235.941311 634.827829,231.582279 L636.857538,227.223248 Z" id="Fill-10" fill="#A8D29F"></path>
            <path d="M602,206 C602,206 632.591169,215.96546 636.088246,227.10362 C636.088246,227.10362 635.941296,232.085104 639,237.800772 L639,240 C639,240 635.796823,232.525282 634.047459,231.499585 C634.047459,231.499585 640.894663,221.8273 602,206" id="Fill-12" fill="#82B378"></path>
            <path d="M639.353487,238.340257 C639.353487,238.340257 643.723743,245.403053 641.232353,254 L640.10748,253.679334 C640.10748,253.679334 641.199471,244.209914 638.91302,239.447125 C636.627334,234.685151 639.353487,238.340257 639.353487,238.340257" id="Fill-14" fill="#82B378"></path>
            <path d="M654.423821,219.376637 C654.423821,219.376637 640.089808,211.293031 646.778193,200.324313 C646.778193,200.324313 652.1289,193.588526 657.863326,191.85597 C657.863326,191.85597 654.805897,208.21431 657.863326,208.599874 C660.921578,208.983784 659.965977,190.124242 659.965977,190.124242 C659.965977,190.124242 675.06332,182.811764 680.988373,183.388455 C680.988373,183.388455 671.624636,199.362058 674.681244,198.976494 C677.739495,198.591757 688.250282,182.427027 688.250282,182.427027 C688.250282,182.427027 703.730523,179.540261 706.216071,188.778077 C708.700797,198.015066 704.686945,202.633561 702.393667,203.210252 C700.10039,203.788598 685.384301,203.596643 685.766377,205.520326 C686.148453,207.44401 696.086538,210.524385 701.628694,208.791829 C701.628694,208.791829 695.513013,223.995131 687.48613,223.224831 C679.459248,222.455357 676.974521,217.452126 672.00589,217.066562 C667.037259,216.680998 663.406304,218.028818 665.891031,219.376637 C668.374935,220.723629 676.783894,219.817636 680.797746,223.253789 C684.809955,226.689115 688.059655,228.80558 680.606297,230.346182 C673.152118,231.884301 659.774528,230.922873 657.099174,225.150169 L654.423821,219.376637 Z" id="Fill-16" fill="#A8D29F"></path>
            <path d="M699,192 C699,192 658.488202,204.896425 653.858424,219.311132 C653.858424,219.311132 654.051677,225.758529 650,233.155872 L650,236 C650,236 654.244101,226.328497 656.55899,225.001019 C656.55899,225.001019 647.491858,212.482126 699,192" id="Fill-18" fill="#82B378"></path>
            <path d="M650.307534,232.813601 C650.307534,232.813601 644.845379,242.368906 647.959671,254 L649.364183,253.564795 C649.364183,253.564795 648.000276,240.754219 650.858608,234.311342 C653.716215,227.867629 650.307534,232.813601 650.307534,232.813601" id="Fill-20" fill="#82B378"></path>
            <path d="M653.500834,279 C669.240013,279 682,266.463873 682,251 L625,251 C625,266.463873 637.759987,279 653.500834,279" id="Fill-22" fill="#F1A34F"></path>
            <path d="M661,278.785321 C659.842149,278.927894 658.660975,279 657.46314,279 C641.743857,279 629,266.46424 629,251 L636.072053,251 C636.072053,265.286785 646.948355,277.071169 661,278.785321" id="Fill-24" fill="#FFB973"></path>
            <path d="M682,281 L624,281 C624,278.791795 625.579649,277 627.528469,277 L678.471531,277 C680.420351,277 682,278.791795 682,281" id="Fill-26" fill="#F1A34F"></path>
            <mask id="mask-4" fill="white">
                <use xlink:href="#path-3"></use>
            </mask>
            <g id="Clip-29"></g>
            <polygon id="Fill-28" fill="#D86713" mask="url(#mask-4)" points="624 252 682 252 682 251 624 251"></polygon>
            <path d="M570.228742,347.145963 C570.228742,341.75115 572.365018,337.374741 575.000808,337.374741 C577.637407,337.374741 579.773683,341.75115 579.773683,347.145963 L579.773683,444.854037 C579.773683,450.249677 577.637407,454.623604 575.000808,454.623604 C572.365018,454.623604 570.228742,450.249677 570.228742,444.854037 L570.228742,347.145963 Z M565,340.166873 L565,451.833127 C565,458.000636 569.477045,463 575.000808,463 C580.523763,463 585,458.000636 585,451.833127 L585,340.166873 C585,333.999364 580.523763,329 575.000808,329 C569.477045,329 565,333.999364 565,340.166873 L565,340.166873 Z" id="Fill-30" fill="#5B5959" mask="url(#mask-4)"></path>
            <path d="M469.227723,347.145963 C469.227723,341.75115 471.365528,337.374741 474.001212,337.374741 C476.636896,337.374741 478.773894,341.75115 478.773894,347.145963 L478.773894,444.854037 C478.773894,450.249677 476.636896,454.623604 474.001212,454.623604 C471.365528,454.623604 469.227723,450.249677 469.227723,444.854037 L469.227723,347.145963 Z M464,340.166873 L464,451.833127 C464,458.000636 468.476864,463 474.001212,463 C479.523944,463 484,458.000636 484,451.833127 L484,340.166873 C484,333.999364 479.523944,329 474.001212,329 C468.476864,329 464,333.999364 464,340.166873 L464,340.166873 Z" id="Fill-31" fill="#5B5959" mask="url(#mask-4)"></path>
            <path d="M455.433307,349 L574.774768,349 C574.774768,349 586,348.415506 586,337.268905 L586,286.228337 C586,286.228337 580.092245,270.974616 538.736302,269.214539 C497.378698,267.454463 473.158231,276.255669 473.158231,305.589178 C473.158231,305.589178 449.229998,304.120936 449.229998,318.494207 C449.229998,332.868302 447.161122,349 455.433307,349" id="Fill-32" fill="#D68F54" mask="url(#mask-4)"></path>
            <path d="M462.389796,314.220096 C470.21281,327.770476 480.05584,333 480.05584,333 L521,333 C521,333 456.419841,303.882761 462.389796,314.220096" id="Fill-33" fill="#233862" mask="url(#mask-4)"></path>
            <path d="M495.00128,418.996879 C496.095203,420.220569 496.23332,421.589048 495.692714,423.049367 C495.692714,423.054331 495.689324,423.06426 495.682546,423.069224 C494.680984,425.771434 491.373796,428.788047 487.531934,431.800523 C487.039627,432.18608 486.604091,432.538542 486.224481,432.865356 C486.123647,432.950576 486.02366,433.034968 485.930452,433.121842 C485.851649,433.188032 485.77793,433.257532 485.703363,433.322067 C482.121636,436.546352 483.469762,437.285198 477.033329,443.828088 C469.694474,451.283573 464.640909,451.418435 463.204659,450.739159 C461.987024,450.160824 464.457882,446.206794 467.195654,441.759648 C467.328687,441.547839 467.459178,441.329412 467.594753,441.11264 C467.959959,440.521893 468.322623,439.9237 468.683592,439.327162 C471.892487,433.978177 471.06802,431.468745 470.307105,423.508561 C469.690238,417.03848 460,387.366295 460,387.366295 L474.06508,385 C474.06508,385 478.30011,408.629031 482.967286,412.267831 C485.463565,414.2072 488.254719,414.231194 490.653553,415.670001 C490.823022,415.770113 490.989949,415.87188 491.153487,415.978612 C492.51517,416.85894 493.904816,417.769053 495.00128,418.996879" id="Fill-34" fill="#FD6062" mask="url(#mask-4)"></path>
            <path d="M494.034887,419.38997 C495.091999,420.636865 495.225469,422.031297 494.703054,423.519309 C494.703054,423.524368 494.699779,423.534484 494.693228,423.539543 C493.508378,426.289626 490.394361,429.349113 486.804602,432.407758 C486.335412,432.808215 485.921902,433.177478 485.553427,433.521449 C485.455986,433.608285 485.359364,433.694278 485.269293,433.7828 C485.193141,433.850245 485.121903,433.921063 485.049846,433.986822 C481.588644,437.272252 482.891405,438.02511 476.671558,444.692079 C469.579656,452.28895 464.696143,452.42637 463.308223,451.734213 C462.131562,451.144909 464.519275,447.115895 467.164921,442.584413 C468.544653,442.065084 474.959381,439.38329 479.807684,432.996219 C484.077892,427.383926 486.92497,420.175708 489.833461,416 C489.997227,416.102011 490.158537,416.205708 490.316572,416.314464 C491.632435,417.211486 492.975319,418.138859 494.034887,419.38997" id="Fill-35" fill="#233862" mask="url(#mask-4)"></path>
            <path d="M384.05877,411.805551 C383.213967,416.073962 377.194848,415.363254 370.469392,413.701049 C363.744759,412.039677 365.34288,414.01516 355.773115,412.94285 C346.200879,411.873873 343.30135,408.264512 343.010408,406.827267 C342.748313,405.549993 347.477561,405.100906 352.550501,404.508511 C353.186782,404.436857 353.828008,404.357705 354.470058,404.277719 C360.196587,403.550348 364.391755,399.815176 369.593269,396.746553 C374.52115,393.840402 381.876294,382 381.876294,382 L395,383.050647 C395,383.050647 388.111352,393.627106 385.448368,398.225458 C383.880743,400.929979 383.963987,404.505178 384.158498,407.267189 C384.261523,408.767756 384.357954,410.301651 384.05877,411.805551" id="Fill-36" fill="#FD6062" mask="url(#mask-4)"></path>
            <path d="M369.961952,413.638403 C363.116549,411.89645 364.743371,413.96775 355.001739,412.843429 C345.25843,411.722604 342.305988,407.938178 342.01066,406.431222 C341.743019,405.091997 346.557202,404.621128 351.722087,404 L351.769071,404.103958 C351.769071,404.103958 357.612708,408.41691 365.723323,408.620458 C372.332127,408.785568 379.334423,406.814732 383.896906,406.891608 C384.001781,408.464958 384.100783,410.074125 383.795387,411.650969 C382.935412,416.12641 376.808194,415.380357 369.961952,413.638403" id="Fill-37" fill="#233862" mask="url(#mask-4)"></path>
            <path d="M434,326.204258 L446.261421,359.480455 L462.270371,402.927817 C462.270371,402.927817 466.615034,403.351442 470.77438,402.146186 C474.605919,401.028147 479,398.107623 479,398.107623 C479,398.107623 474.554854,351.455659 466.263343,324.677545 C464.13837,317.802353 461.754777,312.242061 459.127389,309.113047 C446.272952,293.792756 434,326.204258 434,326.204258" id="Fill-38" fill="#233862" mask="url(#mask-4)"></path>
            <path d="M446.845053,273.608287 C454.916147,271.010404 477.934568,274.347589 501.05725,278.864354 L505.898747,270.893107 L555.843707,267 C555.843707,267 572.322672,303.48518 563.299167,326.732308 C561.974395,330.147967 559.338919,332.340266 554.846612,332.411305 C554.845784,332.414609 554.120925,332.409653 554.118442,332.411305 C554.118442,332.411305 524.393417,332.394784 514.740211,332.394784 C489.902194,332.394784 462.173015,315.350359 458.586781,314.635012 C452.716745,313.462867 450.367572,325.183491 444.496708,337.491426 C438.625016,349.800187 389.309757,392 389.309757,392 C389.309757,392 381.729351,392.0734 378.596568,390.902081 C375.23044,389.639898 374,388.002695 374,388.002695 C374,388.002695 428.645788,279.469838 446.845053,273.608287" id="Fill-39" fill="#2B478B" mask="url(#mask-4)"></path>
            <path d="M518.093468,198.332171 C533.560406,211.323139 549.042906,237.055472 549.250136,236.961767 C549.250136,236.961767 526.441666,237.556337 534.68584,234.056089 C548.427767,228.222344 563.939754,216.086328 561.801102,189.91947 C560.579834,174.994701 558.413332,175.488931 560.072815,160.137929 C560.975456,151.81147 555.021467,122.596304 536.147921,121.532381 C534.568709,121.441993 525.021359,120.054665 518.176197,122.156804 C500.729511,127.509587 492.876865,189.574504 518.093468,198.332171" id="Fill-40" fill="#233862" mask="url(#mask-4)"></path>
            <path d="M526.748728,203.644545 C528.220766,195.335807 523.019948,190.268603 516.509107,185.140624 C509.890256,179.925592 486.099542,185.004294 490.55084,192.165725 C499.300422,206.25124 504.660799,214.100068 513.03153,214.918048 C520.132332,215.60709 525.279145,211.959852 526.748728,203.644545" id="Fill-41" fill="#FD6062" mask="url(#mask-4)"></path>
            <path d="M522,190.882683 L514.98652,204.681193 L499.05393,205 C499.05393,205 464.875715,167.276112 461.002475,156.064308 C456.877191,144.11933 466.555743,148.597461 470.626487,149.942713 C470.626487,149.942713 514.061802,185.787532 522,190.882683" id="Fill-42" fill="#FD6062" mask="url(#mask-4)"></path>
            <path d="M464.692991,163 C464.692991,163 448.723532,128.559568 445,105.361728 C445,105.361728 449.778589,99.2436432 452.104952,103.514618 C456.043044,110.76964 477.182198,142.713284 480.939519,156.613426 C482.153384,161.102341 464.692991,163 464.692991,163" id="Fill-43" fill="#FD6062" mask="url(#mask-4)"></path>
            <path d="M437.776343,77.9398771 C437.776343,77.9398771 439.085982,76.4706986 439.515198,80.7857915 L440.613079,87.3442706 C440.613079,87.3442706 437.931903,76.7637089 440.569099,73.4770409 C440.569099,73.4770409 440.954335,72.6656912 442.136919,73.7329091 C442.136919,73.7329091 442.64758,83.4682805 444.041922,86.948913 C444.041922,86.948913 440.646472,76.1644822 443.279595,71.6017748 C443.279595,71.6017748 444.886509,69.9815515 445.678156,72.0582106 C445.678156,72.0582106 445.670826,80.6652859 447.734647,86.6715849 C447.734647,86.6715849 445.96973,75.5058279 446.962547,71.8097709 C446.962547,71.8097709 448.935964,70.4809072 449.435223,73.0965402 C449.435223,73.0965402 450.218726,79.9009829 451.760483,87.4746808 C451.760483,87.4746808 454.368359,82.488553 458,82.8475938 L454.2918,99.6622597 L452.053686,103.160225 L445.203331,105 L441.353416,97.4807772 C441.353416,97.4807772 437.646845,89.4704526 437.008315,80.8014738 C437.008315,80.8014738 436.864157,78.5927537 437.776343,77.9398771" id="Fill-44" fill="#FD6062" mask="url(#mask-4)"></path>
            <path d="M520.300364,194.50896 C520.221417,194.559427 529.180994,197.523909 535.174202,194.951761 C540.811311,192.536709 545.081136,183.549656 544.99883,183.544772 C542.433072,183.430817 539.618717,181.2567 537.45105,167 L536.358398,167.380124 L518,173.782006 C518,173.782006 519.330331,179.492011 520.189503,184.927709 C520.913458,189.49083 521.303151,193.862668 520.300364,194.50896" id="Fill-45" fill="#FD6062" mask="url(#mask-4)"></path>
            <path d="M518,172.566936 C518,172.566936 519.30436,178.424158 520.146759,184 C530.484469,182.112163 534.544947,171.666852 536,166 L518,172.566936 Z" id="Fill-46" fill="#AB2A41" mask="url(#mask-4)"></path>
            <path d="M518.080162,178.829152 C523.932921,183.214794 541.504582,174.754792 542.133695,162.204947 C542.898335,146.908168 546.448808,136.773604 530.383002,135.250608 C514.315523,133.726797 510.943243,139.44394 509.457466,144.501851 C507.970015,149.559762 509.923444,172.717611 518.080162,178.829152" id="Fill-47" fill="#FD6062" mask="url(#mask-4)"></path>
            <path d="M512,135.715121 C512,135.715121 524.854181,152.315816 535.123279,155.462966 C545.392376,158.610955 550,155.948239 550,155.948239 C550,155.948239 544.808542,149.491343 542.678734,140.297137 C542.049863,137.58581 540.057621,135.418425 537.437326,134.662439 C530.084944,132.536121 515.963195,129.455183 512,135.715121" id="Fill-48" fill="#233862" mask="url(#mask-4)"></path>
            <path d="M522,136.079383 C522,136.079383 515.966459,140.110971 513.665347,143.527529 C511.441909,146.82257 509.364112,155.339579 509.956381,159 C509.956381,159 504.97873,141.693185 510.903041,134.918761 C517.185789,127.731837 522,136.079383 522,136.079383" id="Fill-49" fill="#233862" mask="url(#mask-4)"></path>
            <path d="M500.004764,230.213137 C500.758541,280.337184 500.212616,269.862971 505.738644,274.618633 C507.071736,275.765323 510.816413,276.447542 515.744763,276.769609 C531.241015,277.789626 558.482165,275.257799 559.518087,272.41798 C563.092476,262.588729 560.569034,259.536131 563.549917,244.488402 C563.862113,242.889659 564.246931,241.15679 564.69853,239.269924 C567.184408,228.935633 569.604341,225.420219 560.783564,208.815971 C552.784179,193.77735 544.472598,181.571096 543.724664,182.011558 C522.620578,194.438042 520.917693,183.992807 520.917693,183.992807 C520.917693,183.992807 499.634971,205.763373 500.004764,230.213137" id="Fill-50" fill="#B0D4FF" mask="url(#mask-4)"></path>
            <path d="M446,359.658935 L462.136783,402.92842 C462.136783,402.92842 466.516139,403.349476 470.709527,402.149177 C474.570832,401.036564 479,398.128052 479,398.128052 C479,398.128052 474.520189,351.667973 466.161639,325 L446,359.658935 Z" id="Fill-51" fill="#2B478B" mask="url(#mask-4)"></path>
            <path d="M516,276.771277 C531.234437,277.783912 558.01678,275.270407 559.035255,272.451138 C562.550263,262.69384 560.068501,259.66251 563,244.723676 L555.653198,224 C555.653198,224 556.867817,247.078546 550.072517,253.147781 C543.283784,259.217839 522.249542,264.865416 518.947092,269.937633 C517.352494,272.370588 516.305296,274.812584 516,276.771277" id="Fill-52" fill="#8FB0D1" mask="url(#mask-4)"></path>
            <path d="M534,267.26717 C534,267.26717 518.751188,264.005913 516.290762,265.306258 C513.830336,266.606602 507.817072,271.339342 507.062708,272.985165 C506.310009,274.633387 512.542255,271.736003 514.568048,271.214586 C515.880275,270.875505 519.336528,272.0295 521.04592,272.576509 C528.243186,274.8813 532.653635,273.694517 532.653635,273.694517 L534,267.26717 Z" id="Fill-53" fill="#FD6062" mask="url(#mask-4)"></path>
            <path d="M543.45559,182 C543.45559,182 563.578262,183.249049 570.543834,193.038629 C580.348656,206.817746 599.800381,265.544503 588.65203,273.376826 C576.097963,282.197671 531.516012,275.684476 531.516012,275.684476 C531.516012,275.684476 530.032565,268.696395 532.096135,265.317778 C534.160524,261.937513 567.705402,256.477971 569.252671,254.917278 C570.801575,253.358233 549.900769,224.498184 549.900769,219.818578 C549.900769,215.138146 543.45559,182 543.45559,182" id="Fill-54" fill="#B0D4FF" mask="url(#mask-4)"></path>
            <path d="M539,184.171162 C539,184.171162 561.340024,185.711289 566.933306,192.912421 C572.106141,199.572428 584.727857,230.999334 588.038471,247.649351 C591.349085,264.299367 590.521431,272 590.521431,272 C590.521431,272 594.866612,265.131868 588.659211,240.573094 C583.193387,218.949717 576.037495,195.618049 568.174786,189.790543 C560.312078,183.963037 543.043087,182 543.043087,182 L539,184.171162 Z" id="Fill-55" fill="#8FB0D1" mask="url(#mask-4)"></path>
            <path d="M515,270 C515,270 511.787329,274.123682 510.733184,274.616958 C509.679877,275.110233 509,274.986081 509,274.986081 L511.164387,271.108203 L515,270 Z" id="Fill-56" fill="#FD6062" mask="url(#mask-4)"></path>
            <path d="M516,265 L507,269.415096 C507,269.415096 507.382361,270.048386 508.49153,269.997038 C509.598279,269.946505 512.394192,268.913029 512.394192,268.913029 L516,265 Z" id="Fill-57" fill="#FD6062" mask="url(#mask-4)"></path>
            <path d="M521,184.816838 C521,184.816838 517.087452,184.904822 513.261479,182.288538 C506.577681,177.71585 497.801087,168.851858 493.698738,165.272727 C487.039082,159.462451 481.628111,154.482213 481.628111,154.482213 C481.628111,154.482213 467.476341,126.675889 462.481598,120.035573 C457.486856,113.395257 455.405713,108 455.405713,108 L445,114.640316 C445,114.640316 453.324571,151.162055 462.481598,163.612648 C471.638626,176.063241 503.688223,213 503.688223,213" id="Fill-58" fill="#B0D4FF" mask="url(#mask-4)"></path>
            <polygon id="Fill-59" fill="#9292A8" mask="url(#mask-4)" points="506 277 432.96859 277 411 223 483.91887 223"></polygon>
            <polygon id="Fill-60" fill="#72727C" mask="url(#mask-4)" points="432 275 529 275 529 277 432.859792 277"></polygon>
            <path d="M452.136126,249.499167 C451.604606,247.566754 452.676451,246 454.535169,246 C456.393087,246 458.331053,247.566754 458.863373,249.499167 C459.396494,251.432413 458.322248,253 456.462729,253 C454.607212,253 452.670047,251.432413 452.136126,249.499167" id="Fill-61" fill="#FFFFFF" mask="url(#mask-4)"></path>
            <polygon id="Fill-62" fill="#9386A7" mask="url(#mask-4)" points="120 296 712 296 712 276 120 276"></polygon>
            <polygon id="Fill-63" fill="#5B6B72" mask="url(#mask-4)" points="656 494 668 494 668 296 656 296"></polygon>
            <polygon id="Fill-64" fill="#5B6B72" mask="url(#mask-4)" points="163 494 175 494 175 296 163 296"></polygon>
            <path d="M381,166.179751 C381,166.179751 383.277625,171.507041 388.083034,170.960673 C391.987534,170.519731 393,165 393,165 C393,165 389.451299,167.643982 381,166.179751" id="Fill-65" fill="#FFFFFF" mask="url(#mask-4)"></path>
            <path d="M317,268.766653 C317,270.553833 318.341368,272 319.999034,272 L385.99931,272 C387.656148,272 389,270.553833 389,268.766653 L389,223.234185 C389,221.44868 387.656148,220 385.99931,220 L319.999034,220 C318.341368,220 317,221.44868 317,223.234185 L317,268.766653 Z" id="Fill-66" fill="#D7D7E6" mask="url(#mask-4)"></path>
            <path d="M317,268.765715 L317,223.220037 C317,221.482625 318.270497,220.077107 319.859857,220 C324.35203,221.973761 335.16034,226.929534 350.238611,235.133841 C369.676882,245.708336 376.15493,270.57269 377,270.857649 L374.098013,272 L319.992028,272 C318.338235,272 317,270.553414 317,268.765715" id="Fill-67" fill="#9292A8" mask="url(#mask-4)"></path>
            <path d="M301,274.499185 C301,275.879928 302.155833,277 303.584261,277 L387.415739,277 C388.844167,277 390,275.879928 390,274.499185 C390,273.118442 388.844167,272 387.415739,272 L303.584261,272 C302.155833,272 301,273.118442 301,274.499185" id="Fill-68" fill="#7A7A8C" mask="url(#mask-4)"></path>
            <path d="M272.248618,306 C272.248618,306 322.27427,325.52887 319.919396,365.177117 C317.785779,401.107824 283.431597,464 283.431597,464 L268.719186,461.040855 C268.719186,461.040855 285.196724,392.396623 284.019699,374.644232 C283.34441,364.485713 244,349.790885 244,349.790885 L272.248618,306 Z" id="Fill-69" fill="#FD6062" mask="url(#mask-4)"></path>
            <path d="M319,373.638577 C318.92529,374.063748 318.84726,374.493023 318.765079,374.922298 C300.764127,373.375923 290.123767,374.198358 283.951894,376 C283.953554,375.246512 283.936122,374.547196 283.893786,373.919289 C283.733575,371.557866 281.432508,368.947743 278,366.336799 L304.088721,361 L319,373.638577 Z" id="Fill-70" fill="#AB2A41" mask="url(#mask-4)"></path>
            <path d="M283.913559,464.159433 C283.913559,464.159433 282.917594,469.729925 286.128883,477.419028 C288.826535,483.875082 299.826998,492.315845 300.96343,497.035278 C301.452528,499.057775 297.026111,500.38201 288.254511,496.555531 C272.918173,489.862889 275.435587,483.727215 272.11937,482.796472 C268.804,481.86655 268.020428,493.318878 268.020428,493.318878 L265.007148,492.393064 C265.007148,492.393064 264.837064,483.866867 266.156273,476.833309 C267.476328,469.797287 268.825154,461 268.825154,461 L283.913559,464.159433 Z" id="Fill-71" fill="#231B41" mask="url(#mask-4)"></path>
            <path d="M311.249229,313 C311.249229,313 361.274316,332.527421 358.919391,372.176083 C356.786551,408.107165 322.432449,471 322.432449,471 L307.718075,468.040824 C307.718075,468.040824 324.196792,399.397527 323.020563,381.643296 C322.34526,371.484671 283,356.789689 283,356.789689 L311.249229,313 Z" id="Fill-72" fill="#FD6062" mask="url(#mask-4)"></path>
            <path d="M322.913977,471.159433 C322.913977,471.159433 321.91884,476.729925 325.129341,484.419028 C327.827041,490.875082 338.826856,499.314202 339.963309,504.035278 C340.453261,506.057775 336.026765,507.38201 327.255853,503.555531 C311.918393,496.862889 314.436698,490.727215 311.119576,489.798115 C307.8033,488.86655 307.019714,500.318878 307.019714,500.318878 L304.007225,499.393064 C304.007225,499.393064 303.836292,490.866867 305.157218,483.833309 C306.475605,476.797287 307.826147,468 307.826147,468 L322.913977,471.159433 Z" id="Fill-73" fill="#231B41" mask="url(#mask-4)"></path>
            <path d="M238.923645,368 L243.039756,368.110198 C242.523386,372.064911 227.528862,487.131048 231.072512,495.574064 C234.678853,504.165393 254.950084,485.606499 258.106045,480.046039 C261.227361,474.546065 257.305094,370.707731 257.222607,368.495478 L260.762133,368.59242 C260.762133,368.59242 266.663268,478.860371 262.532308,485.38196 C258.399699,491.903548 229.479684,515.617736 224.757291,505.539144 C220.037373,495.460552 238.923645,368 238.923645,368" id="Fill-74" fill="#5B5959" mask="url(#mask-4)"></path>
            <path d="M322.92261,367 L327.039581,367.119043 C326.523207,371.326333 311.527732,493.788957 315.071412,502.775443 C318.677783,511.919265 338.949184,492.165645 342.105171,486.249299 C345.227338,480.394555 341.305863,369.88117 341.220901,367.528617 L344.762106,367.63101 C344.762106,367.63101 350.66329,484.987278 346.532296,491.928392 C342.399653,498.867841 313.479396,524.107422 308.757789,513.381078 C304.036182,502.654735 322.92261,367 322.92261,367" id="Fill-75" fill="#5B5959" mask="url(#mask-4)"></path>
            <path d="M322.982266,295.775523 C322.982266,295.775523 327.85545,266.444895 330.513326,253.111286 C333.172027,239.779333 336.717512,190.003561 334.057985,185.559577 C334.006793,185.474275 307.551066,182.528458 305.257317,181.559494 C303.136961,180.664237 300.566608,179.994244 297.90543,179.49237 C290.41648,178.134992 282.816889,178.012423 281.509832,178 L281.496621,178 L281.405796,178 C281.349649,178 281.310842,178 281.310842,178 C268.312931,181.995114 257.977024,189.55966 250.443487,198.448456 C242.909951,207.337253 238.92355,243.336342 240.252901,253.112942 C241.581426,262.89037 243.79756,264.667633 243.79756,264.667633 L245.569477,277.557341 C247.34222,290.444564 250.887705,298 250.887705,298 L323.183733,296.561461 C323.049146,296.062072 322.982266,295.775523 322.982266,295.775523" id="Fill-76" fill="#6153CF" mask="url(#mask-4)"></path>
            <path d="M240.265774,252.63897 C239.773546,249.261279 239.975307,242.696441 240.785832,235.227736 C245.422864,223.541803 251,212 251,212 C245.865521,230.789834 243.999229,264 243.999229,264 C243.999229,264 241.665059,262.252525 240.265774,252.63897" id="Fill-77" fill="#131026" mask="url(#mask-4)"></path>
            <path d="M359.519875,368 L239.307304,368 C239.307304,368 228,367.405998 228,356.110822 L228,304.395266 C228,304.395266 233.950994,288.940415 275.608782,287.156748 C317.266571,285.373911 341.666062,299.044264 341.666062,315.688781 C341.666062,315.688781 365.768626,325.200289 365.768626,339.763722 C365.768626,354.327986 367.851266,368 359.519875,368" id="Fill-78" fill="#D68F54" mask="url(#mask-4)"></path>
            <path d="M303.239343,180 L304.710813,166.701411 C304.710813,166.701411 315.899088,161.678197 318.549873,145.719725 C321.19819,129.762079 312.071455,109.960819 293.522539,116.167764 C274.973623,122.373056 273.502153,140.105059 275.858316,148.97106 C278.212832,157.836236 281.745842,158.427688 281.745842,164.33808 L281.745842,177.631713 C281.745842,177.631713 288.81186,176.749491 303.239343,180" id="Fill-79" fill="#FD6062" mask="url(#mask-4)"></path>
            <path d="M314.587764,120.122335 C314.587764,120.122335 318.127727,126.315076 313.998458,133.392258 C309.870837,140.469441 303.089275,144.59821 303.089275,144.59821 C303.089275,144.59821 303.089275,160.227195 296.601954,162.881344 C290.115458,165.535494 280.973371,163.765786 275.372071,154.329542 C269.769947,144.893299 271.242802,126.60934 271.242802,126.60934 C271.242802,126.60934 257.345875,119.300537 265.640678,107.736853 C275.372071,94.1734887 283.923202,108.916383 283.923202,108.916383 C283.923202,108.916383 307.216071,100.953934 314.587764,120.122335" id="Fill-80" fill="#231B41" mask="url(#mask-4)"></path>
            <path d="M317,200.893124 L324.577599,215.659929 L341.796314,216 C341.796314,216 378.730766,175.628474 382.916876,163.630701 C387.374239,150.847644 376.916037,155.639032 372.516087,157.078173 C372.516087,157.078173 325.578571,195.439666 317,200.893124" id="Fill-81" fill="#FD6062" mask="url(#mask-4)"></path>
            <path d="M379.212947,172 C379.212947,172 396.06956,134.736901 400,109.637252 C400,109.637252 394.956309,103.017528 392.49968,107.638971 C388.342435,115.487571 366.029231,150.049817 362.063897,165.090391 C360.781997,169.946582 379.212947,172 379.212947,172" id="Fill-82" fill="#FD6062" mask="url(#mask-4)"></path>
            <path d="M408.150493,80.3484886 C408.150493,80.3484886 406.71596,78.7916156 406.247201,83.3620801 L405.042892,90.3061245 C405.042892,90.3061245 407.97928,79.1034788 405.091097,75.6224997 C405.091097,75.6224997 404.669713,74.7634511 403.37481,75.8936497 C403.37481,75.8936497 402.814627,86.2022333 401.286176,89.8867785 C401.286176,89.8867785 405.007153,78.4683528 402.122294,73.6373238 C402.122294,73.6373238 400.362788,71.9216693 399.495918,74.1201824 C399.495918,74.1201824 399.502567,83.2334264 397.244382,89.5936434 C397.244382,89.5936434 399.177594,77.7705284 398.088812,73.8579894 C398.088812,73.8579894 395.927869,72.450941 395.380984,75.219439 C395.380984,75.219439 394.522425,82.4248621 392.834397,90.4437351 C392.834397,90.4437351 389.978628,85.1640466 386,85.5451222 L390.061741,103.348193 L392.512749,107.05228 L400.016206,109 L404.232538,101.038125 C404.232538,101.038125 408.292617,92.5567505 408.990767,83.3783654 C408.990767,83.3783654 409.149514,81.0397989 408.150493,80.3484886" id="Fill-83" fill="#FD6062" mask="url(#mask-4)"></path>
            <path d="M326.873275,233 C326.873275,233 371.444876,184.956126 381.260622,171.609685 C391.077199,158.264901 400,119.11755 400,119.11755 L388.845668,112 C388.845668,112 386.614967,117.783734 381.260622,124.901284 C375.907939,132.018833 360.737016,161.824505 360.737016,161.824505 C360.737016,161.824505 354.937861,167.162252 347.799288,173.389486 C343.401907,177.226796 333.442325,183.020478 326.278809,187.922186 C322.177414,190.726597 312,194.446192 312,194.446192" id="Fill-84" fill="#6153CF" mask="url(#mask-4)"></path>
            <path d="M515,168.199837 C515,168.199837 519.0625,169.998371 522.71875,169.199023 C526.375,168.399674 528,168 528,168 C528,168 525.4845,173.688163 519.875,173.995113 C516.21875,174.19495 515,168.199837 515,168.199837" id="Fill-85" fill="#FFFFFF" mask="url(#mask-4)"></path>
            <path d="M207.660308,267.130469 C207.081785,268.668643 204.476389,269.495727 203.191693,269.817651 C203.70639,268.604763 204.026336,267.286808 204.115529,265.905814 C204.90844,264.790427 206.160405,264.139015 207.077694,264.309643 C207.897608,264.46346 208.393485,265.182956 207.660308,267.130469 M208.872177,262.851319 C207.786323,262.162923 205.675166,262.431053 204.144168,262.761382 L204.144168,260.48438 C204.144168,259.981742 204.109801,259.486668 204.050066,259 L181.09492,259 C181.034368,259.486668 181,259.981742 181,260.48438 L181,265.113192 C181,271.650012 186.20752,277 192.572902,277 C196.01867,277 199.124034,275.429045 201.249102,272.951996 L201.248283,272.955358 C201.248283,272.955358 206.709469,271.574364 208.424579,269.483119 C210.137235,267.391875 210.693663,264.007892 208.872177,262.851319" id="Fill-86" fill="#C45446" mask="url(#mask-4)"></path>
            <path d="M182,260.485714 L182,265.114286 C182,271.647899 187.158177,277 193.460814,277 C193.981171,277 194.497475,276.962185 195,276.884874 C189.418729,276.101681 185.081614,271.107563 185.081614,265.114286 L185.081614,260.485714 C185.081614,259.983193 185.114035,259.487395 185.174824,259 L182.0924,259 C182.032421,259.487395 182,259.983193 182,260.485714" id="Fill-87" fill="#E37970" mask="url(#mask-4)"></path>
            <polygon id="Fill-88" fill="#C45446" mask="url(#mask-4)" points="188 278 198 278 198 276 188 276"></polygon>
            <path d="M594.922306,264.309643 C595.839595,264.139015 597.09156,264.790427 597.884471,265.905814 C597.973664,267.286808 598.29361,268.604763 598.808307,269.817651 C597.523611,269.495727 594.918215,268.668643 594.339692,267.130469 C593.606515,265.182956 594.102392,264.46346 594.922306,264.309643 M593.575421,269.483119 C595.290531,271.574364 600.751717,272.955358 600.751717,272.955358 L600.750898,272.951996 C602.875966,275.429045 605.98133,277 609.427098,277 C615.79248,277 621,271.650012 621,265.113192 L621,260.48438 C621,259.981742 620.965632,259.486668 620.90508,259 L597.949934,259 C597.890199,259.486668 597.855832,259.981742 597.855832,260.48438 L597.855832,262.761382 C596.324834,262.431053 594.213677,262.162923 593.127823,262.851319 C591.306337,264.007892 591.862765,267.391875 593.575421,269.483119" id="Fill-89" fill="#C45446" mask="url(#mask-4)"></path>
            <path d="M618.9076,259 L615.825176,259 C615.885965,259.486577 615.918386,259.983239 615.918386,260.485784 L615.918386,265.113731 C615.918386,271.108128 611.581271,276.102479 606,276.885709 C606.502525,276.963023 607.018829,277 607.539996,277 C613.841823,277 619,271.647649 619,265.113731 L619,260.485784 C619,259.983239 618.967579,259.486577 618.9076,259" id="Fill-90" fill="#E37970" mask="url(#mask-4)"></path>
            <polygon id="Fill-91" fill="#C45446" mask="url(#mask-4)" points="605 278 615 278 615 276 605 276"></polygon>
            <path d="M462,163 L505,203.818025 L502.224491,215 C502.224491,215 465.328946,167.190829 462,163" id="Fill-92" fill="#8FB0D1" mask="url(#mask-4)"></path>
            <path d="M334,232.835929 C333.985172,232.566528 333.968697,232.304496 333.946456,232.055566 C333.836896,230.832207 330.23954,250.070232 325.296987,263.990656 C320.354433,277.91108 315,289.783563 315,289.783563 L324.301062,293 C325.336527,286.860274 329.267505,263.729443 331.555083,252.354819 C332.354953,248.383404 333.23308,241.138233 334,232.835929" id="Fill-93" fill="#131026" mask="url(#mask-4)"></path>
        </g>
    </g>
</svg>